<svg width="660" height="521" viewBox="0 0 660 521" fill="none" xmlns="http://www.w3.org/2000/svg">
<path d="M615.579 296.583C530.853 454.709 400.226 472.005 400.226 472.005C379.182 475.748 357.958 478.394 336.64 479.932C335.283 480.038 333.934 480.122 332.584 480.199C197.094 488.721 119.755 442.052 76.8129 395.635C32.4679 347.715 13.6 281.103 28.0311 217.437C52.7079 108.551 157.712 73.4328 157.712 73.4328C180.43 64.4302 204.977 60.9054 228.663 60.5392C291.517 59.5093 348.235 80.7417 348.235 80.7417C364.951 86.4791 381.966 91.3029 399.205 95.1917C434.31 102.943 450.99 101.341 450.99 101.341C512.686 91.316 554.805 101.249 554.805 101.249C614.816 113.937 632.647 158.973 636.108 198.676C639.066 232.573 631.649 266.6 615.579 296.583Z" fill="#FF0037"/>
<path opacity="0.7" d="M615.571 296.576C539.924 437.719 427.655 466.672 404.465 471.288C401.682 471.837 400.181 472.051 400.181 472.051C394.646 473.022 389.193 473.912 383.821 474.721L383.234 474.805C366.971 477.241 351.424 478.965 336.594 479.977C335.245 480.077 333.888 480.168 332.539 480.237C322.979 480.842 313.709 481.175 304.729 481.236H304.126C295.71 481.297 287.54 481.137 279.617 480.756C271.379 480.369 263.397 479.761 255.672 478.932C231.75 476.513 208.154 471.543 185.286 464.108C184.127 463.727 182.981 463.34 181.848 462.949C179.942 462.3 178.036 461.629 176.206 460.942C161.206 455.48 146.727 448.681 132.944 440.625C132.7 440.503 132.464 440.358 132.22 440.206C130.192 439.023 128.179 437.795 126.22 436.566C118.96 432.013 111.944 427.08 105.202 421.788C95.0356 413.846 85.524 405.097 76.7596 395.627C32.4603 347.708 13.6001 281.096 28.0235 217.437C45.7402 139.358 104.699 99.1818 136.672 82.7482C141.68 80.1695 146.025 78.1706 149.441 76.6982L149.997 76.454C154.861 74.3865 157.704 73.4023 157.704 73.4023C161.597 71.8764 165.544 70.4904 169.544 69.2443C180.163 66.0121 191.045 63.7145 202.065 62.3779L202.507 62.3245C203.117 62.2406 203.734 62.1719 204.344 62.0956L204.809 62.0498C205.826 61.9278 206.824 61.821 207.805 61.7294C214.765 61.0275 221.718 60.646 228.602 60.5392H228.701C291.517 59.5093 348.227 80.7417 348.227 80.7417C364.943 86.4791 381.958 91.3029 399.197 95.1917C402.064 95.8224 404.808 96.3946 407.43 96.9083H407.537C409.895 97.366 412.152 97.7831 414.307 98.1595H414.413H414.589C417.272 98.6249 419.811 99.0216 422.212 99.3649C441.606 102.157 450.937 101.257 450.937 101.257C456.639 100.336 462.166 99.5735 467.518 98.9682L467.914 98.9224C520.233 93.025 554.76 101.211 554.76 101.211C568.527 104.118 580.077 108.734 589.743 114.601L589.88 114.677C622.226 134.376 633.394 168.082 636.055 198.6C639.059 232.573 631.641 266.592 615.571 296.576Z" fill="white"/>
<path d="M315.264 112.846C317.378 111.57 319.652 110.579 322.026 109.901L323.413 103.202L334.726 103.012L336.365 109.649C338.761 110.244 341.068 111.152 343.226 112.35L348.959 108.596L357.101 116.47L353.556 122.314C354.837 124.427 355.827 126.703 356.499 129.081L363.184 130.477L363.39 141.799L356.773 143.432C356.187 145.833 355.276 148.143 354.067 150.298L357.825 156.036L349.912 164.184L344.065 160.636C341.953 161.915 339.679 162.903 337.303 163.573L335.908 170.272L324.603 170.47L322.964 163.833C320.567 163.238 318.259 162.328 316.103 161.124L310.37 164.878L302.266 157.012L305.803 151.168C304.529 149.049 303.54 146.771 302.861 144.393L296.175 143.005L295.969 131.629L302.609 129.997C303.196 127.597 304.104 125.287 305.308 123.13L301.565 117.393L309.417 109.245L315.264 112.8V112.846ZM321.309 127.922C319.643 129.648 318.526 131.831 318.099 134.193C317.672 136.555 317.955 138.991 318.911 141.193C319.868 143.394 321.455 145.263 323.472 146.561C325.489 147.86 327.846 148.531 330.244 148.49C332.643 148.448 334.975 147.696 336.946 146.328C338.917 144.96 340.439 143.038 341.318 140.804C342.198 138.571 342.396 136.127 341.887 133.781C341.379 131.434 340.187 129.292 338.462 127.624C336.147 125.389 333.04 124.164 329.824 124.22C326.608 124.276 323.545 125.607 321.309 127.922Z" fill="white"/>
<path d="M321.309 127.921C321.955 127.136 322.728 126.466 323.596 125.938C325.939 124.417 328.735 123.757 331.509 124.069C333.431 124.27 335.278 124.923 336.899 125.976C338.991 127.344 340.622 129.311 341.58 131.621C342.538 133.931 342.778 136.476 342.27 138.924C341.761 141.373 340.527 143.611 338.729 145.347C336.93 147.084 334.651 148.237 332.188 148.658C330.952 148.879 329.688 148.902 328.445 148.727C327.254 148.569 326.093 148.237 324.999 147.742C322.976 146.818 321.233 145.376 319.945 143.562C318.838 141.97 318.12 140.141 317.848 138.221C317.441 135.464 317.996 132.651 319.419 130.256C319.925 129.394 320.569 128.621 321.325 127.967C321.393 128.021 320.562 128.784 319.685 130.424C318.357 132.795 317.866 135.544 318.29 138.229C318.633 140.402 319.574 142.436 321.008 144.103C322.442 145.771 324.311 147.005 326.407 147.668C328.503 148.331 330.742 148.396 332.873 147.856C335.004 147.315 336.942 146.191 338.47 144.61C339.998 143.029 341.055 141.052 341.523 138.903C341.991 136.753 341.85 134.516 341.118 132.442C340.385 130.368 339.09 128.539 337.376 127.161C335.663 125.783 333.599 124.91 331.418 124.641C328.735 124.31 326.02 124.888 323.703 126.281C322.866 126.768 322.066 127.316 321.309 127.921Z" fill="#F5F5F5"/>
<path d="M315.264 112.845C315.133 112.791 315.008 112.725 314.891 112.647L313.77 111.998L309.356 109.397H309.508L301.695 117.591V117.369L305.46 123.107L305.529 123.213L305.468 123.32C304.28 125.463 303.387 127.758 302.815 130.141V130.271H302.647L296.008 131.911L296.198 131.667C296.274 135.222 296.343 139.044 296.427 142.973L296.206 142.714L302.899 144.103H303.074L303.12 144.27C303.798 146.62 304.782 148.87 306.047 150.961L306.131 151.114L306.047 151.274L302.525 157.164L302.48 156.775L310.629 164.633L310.217 164.587C312.009 163.428 313.953 162.131 315.95 160.834L316.118 160.727L316.301 160.826C318.431 162.012 320.71 162.908 323.078 163.489L323.276 163.542L323.322 163.741C323.833 165.816 324.389 168.089 324.961 170.386L324.626 170.126L335.939 169.92L335.603 170.195L336.998 163.489L337.036 163.283L337.242 163.229C339.583 162.565 341.823 161.59 343.905 160.33L344.088 160.223L344.271 160.33L350.118 163.87L349.684 163.924L357.536 155.745V156.172C356.278 154.25 355.02 152.358 353.793 150.435L353.724 150.298L353.823 150.115C355.014 147.984 355.911 145.703 356.491 143.332L356.545 143.134H356.743L363.383 141.493L363.131 141.814C363.06 137.948 362.997 134.177 362.941 130.499L363.192 130.805L356.506 129.401H356.324L356.27 129.218C355.605 126.866 354.631 124.614 353.373 122.519L353.282 122.367L353.373 122.206L356.926 116.362L356.972 116.729L348.853 108.847H349.15L343.417 112.578L343.295 112.662L343.158 112.593C341.022 111.397 338.738 110.486 336.366 109.885H336.236V109.755C335.649 107.299 335.115 105.178 334.597 103.11L334.803 103.263L323.49 103.415L323.635 103.293C323.063 105.964 322.59 108.153 322.201 109.977V110.045H322.133C320.352 110.541 318.624 111.208 316.972 112.036L315.744 112.677C315.616 112.754 315.484 112.822 315.348 112.883C315.464 112.786 315.589 112.699 315.722 112.624C315.981 112.464 316.369 112.227 316.911 111.937C318.551 111.054 320.282 110.348 322.072 109.832L321.996 109.916L323.345 103.209V102.996H323.474L334.78 102.736H334.948L334.986 102.904L336.625 109.542L336.465 109.374C338.88 109.961 341.205 110.869 343.379 112.075H343.127L348.86 108.313L349.036 108.199L349.188 108.344C351.772 110.808 354.471 113.44 357.383 116.194L357.543 116.355L357.421 116.553L353.892 122.405V122.092C355.188 124.237 356.19 126.546 356.872 128.958L356.636 128.737L363.329 130.126L363.581 130.171V130.461C363.647 134.139 363.716 137.91 363.787 141.776V142.043L363.52 142.104L356.888 143.744L357.132 143.5C356.513 145.954 355.57 148.315 354.326 150.519V150.153L358.077 155.89L358.222 156.126L358.039 156.317L350.164 164.45L349.973 164.656L349.737 164.511L343.89 160.963H344.248C342.105 162.261 339.797 163.264 337.387 163.947L337.631 163.679C337.151 165.968 336.678 168.257 336.244 170.378L336.183 170.645H335.908L324.595 170.843H324.328L324.26 170.576L322.621 163.924L322.865 164.183C320.441 163.572 318.106 162.649 315.92 161.436H316.263L310.53 165.182L310.309 165.32L310.134 165.137L301.999 157.263L301.824 157.088L301.946 156.882L305.506 151.038V151.335C304.214 149.191 303.219 146.881 302.548 144.469L302.762 144.667L296.068 143.263L295.855 143.218V143.004C295.784 139.021 295.725 135.247 295.68 131.682V131.484L295.878 131.438L302.525 129.798L302.358 129.965C302.954 127.551 303.875 125.228 305.095 123.061V123.259L301.39 117.491L301.306 117.369L301.405 117.27L309.31 109.175L309.379 109.107L309.447 109.16L313.755 111.838L314.86 112.54C315.001 112.633 315.136 112.735 315.264 112.845Z" fill="#F5F5F5"/>
<path d="M511.108 377.133L509.24 369.344C506.424 368.665 503.711 367.61 501.175 366.208L494.474 370.602L484.929 361.379L489.069 354.512C487.584 352.037 486.431 349.377 485.638 346.601L477.794 344.96L477.558 331.678L485.326 329.77C486.02 326.967 487.081 324.268 488.482 321.744L484.083 315.046L493.307 305.41L500.168 309.56C502.637 308.063 505.296 306.905 508.074 306.119L509.69 298.307L522.955 298.07L524.853 305.837C527.652 306.532 530.349 307.591 532.873 308.988L539.574 304.593L549.118 313.817L544.971 320.684C546.463 323.159 547.619 325.822 548.409 328.603L556.254 330.243L556.49 343.518L548.729 345.38C548.036 348.183 546.974 350.882 545.573 353.406L549.964 360.104L540.816 369.763L533.955 365.613C531.486 367.109 528.827 368.266 526.05 369.054L524.434 376.889L511.108 377.133ZM501.198 366.132C503.727 367.537 506.432 368.602 509.24 369.298L511.146 377.065L524.357 376.828L525.996 368.985C528.776 368.191 531.439 367.034 533.917 365.544L540.778 369.687L549.964 360.165L545.581 353.467C546.984 350.939 548.043 348.235 548.729 345.426L556.497 343.526L556.269 330.297L548.432 328.656C547.647 325.87 546.488 323.204 544.986 320.729L549.133 313.863L539.627 304.708L532.873 309.095C530.352 307.684 527.651 306.622 524.845 305.936L522.962 298.162L509.751 298.398L508.112 306.241C505.331 307.035 502.667 308.195 500.191 309.69L493.33 305.494L484.182 315.007L488.566 321.714C487.163 324.243 486.102 326.947 485.41 329.755L477.649 331.655L477.878 344.884L485.715 346.524C486.506 349.308 487.665 351.974 489.16 354.451L485.021 361.318L494.527 370.511L501.198 366.132ZM517.489 351.422C513.765 351.374 510.209 349.868 507.581 347.227C504.954 344.586 503.465 341.021 503.433 337.294C503.401 333.567 504.829 329.977 507.411 327.291C509.992 324.605 513.523 323.039 517.245 322.927H517.504C519.399 322.87 521.286 323.192 523.055 323.874C524.824 324.557 526.439 325.586 527.805 326.902C529.171 328.217 530.261 329.792 531.011 331.535C531.761 333.278 532.156 335.153 532.172 337.05C532.188 338.947 531.826 340.828 531.106 342.584C530.386 344.339 529.323 345.933 527.98 347.271C526.636 348.61 525.039 349.667 523.282 350.379C521.525 351.092 519.644 351.447 517.748 351.422H517.489ZM517.489 322.957H517.237C515.373 322.973 513.53 323.356 511.814 324.084C510.098 324.812 508.542 325.872 507.235 327.202C505.928 328.532 504.895 330.106 504.196 331.836C503.497 333.565 503.145 335.416 503.161 337.281C503.176 339.147 503.559 340.991 504.286 342.709C505.014 344.426 506.073 345.984 507.402 347.292C508.731 348.6 510.304 349.633 512.032 350.333C513.761 351.032 515.609 351.384 517.474 351.369H517.733C521.497 351.336 525.095 349.809 527.734 347.122C530.373 344.435 531.838 340.809 531.805 337.041C531.773 333.273 530.247 329.673 527.562 327.032C524.877 324.39 521.253 322.925 517.489 322.957Z" fill="#E0E0E0"/>
<path d="M507.235 327.298C507.987 326.383 508.884 325.597 509.888 324.971C512.629 323.188 515.902 322.409 519.151 322.766C521.399 323.008 523.559 323.776 525.455 325.009C527.905 326.613 529.814 328.917 530.934 331.623C532.055 334.329 532.334 337.31 531.735 340.177C531.137 343.044 529.688 345.664 527.58 347.694C525.471 349.725 522.799 351.072 519.913 351.56C518.471 351.826 516.995 351.85 515.545 351.628C514.147 351.459 512.784 351.073 511.505 350.484C509.657 349.65 508.006 348.436 506.658 346.921C505.311 345.406 504.297 343.624 503.683 341.691C503.069 339.758 502.868 337.717 503.094 335.701C503.32 333.686 503.967 331.74 504.994 329.991C505.584 328.967 506.336 328.044 507.22 327.26C507.304 327.329 506.404 328.199 505.269 330.144C503.746 332.921 503.193 336.127 503.698 339.253C504.043 341.394 504.883 343.424 506.153 345.181C507.612 347.179 509.571 348.758 511.832 349.759C514.336 350.855 517.105 351.194 519.799 350.736C522.692 350.242 525.351 348.837 527.39 346.725C529.429 344.613 530.741 341.904 531.135 338.994C531.338 337.617 531.32 336.215 531.081 334.844C530.883 333.517 530.476 332.229 529.877 331.029C528.872 328.937 527.357 327.131 525.472 325.778C523.587 324.425 521.392 323.568 519.09 323.285C515.96 322.888 512.788 323.552 510.079 325.17C508.15 326.39 507.319 327.359 507.235 327.298Z" fill="#EBEBEB"/>
<path d="M500.184 309.621C500.03 309.555 499.882 309.475 499.742 309.385L498.43 308.622L493.269 305.57H493.429L484.281 315.145V314.885L488.703 321.576L488.779 321.691L488.711 321.82C487.323 324.334 486.279 327.024 485.608 329.816L485.562 329.976H485.41L477.649 331.876L477.87 331.594C477.957 335.775 478.046 340.194 478.137 344.853L477.878 344.541L485.722 346.181L485.92 346.227L485.981 346.417C486.773 349.181 487.929 351.826 489.42 354.283L489.534 354.459L489.42 354.65L485.28 361.516L485.227 361.066L494.756 370.259L494.276 370.206L500.969 365.811L501.167 365.682L501.373 365.796C503.872 367.182 506.543 368.232 509.317 368.916L509.545 368.97L509.606 369.206L511.527 376.996L511.131 376.683L524.38 376.447L523.991 376.775C524.51 374.31 525.066 371.617 525.631 368.916L525.676 368.68L525.92 368.619C528.662 367.831 531.289 366.687 533.734 365.216L533.948 365.094L534.161 365.216L541.022 369.374L540.511 369.435L549.72 359.906L549.667 360.402L545.284 353.696L545.154 353.49L545.268 353.276C546.663 350.781 547.717 348.11 548.402 345.334L548.455 345.105L548.684 345.052L556.467 343.144L556.17 343.534C556.104 339.002 556.03 334.582 555.949 330.274L556.254 330.632L548.417 328.992H548.196L548.135 328.778C547.363 326.024 546.224 323.386 544.75 320.935L544.636 320.745L544.75 320.562L548.905 313.695L548.958 314.115L539.444 304.883H539.833L533.124 309.255L532.979 309.354L532.819 309.27C530.318 307.868 527.642 306.803 524.861 306.104L524.701 306.066V305.936L522.825 298.147L523.069 298.33L509.812 298.498L509.987 298.36L508.348 306.196V306.272H508.272C506.168 306.846 504.125 307.626 502.173 308.599L500.748 309.362C500.597 309.455 500.439 309.537 500.275 309.606C500.415 309.493 500.562 309.391 500.717 309.301C501.022 309.11 501.48 308.835 502.112 308.484C504.038 307.453 506.067 306.627 508.165 306.02L508.074 306.119C508.501 303.983 509.019 301.397 509.652 298.269V298.124H509.797L523.054 297.826H523.244L523.29 298.017L525.249 305.776L525.051 305.578C527.883 306.269 530.61 307.334 533.162 308.744H532.873L539.551 304.334L539.764 304.197L539.947 304.365L549.423 313.604L549.621 313.794L549.484 314.023L545.337 320.89V320.523C546.853 323.029 548.03 325.726 548.836 328.542L548.554 328.275L556.406 329.915L556.688 329.984V330.281C556.769 334.595 556.851 339.014 556.932 343.541V343.854L556.635 343.923L548.851 345.838L549.149 345.548C548.45 348.396 547.37 351.137 545.939 353.696V353.238C547.388 355.43 548.851 357.666 550.33 359.944L550.506 360.219L550.285 360.448L541.06 370.023L540.832 370.267L540.557 370.091L533.696 365.941H534.108C531.603 367.458 528.905 368.631 526.088 369.428L526.378 369.115C525.821 371.816 525.265 374.455 524.739 376.965L524.678 377.286H524.35L511.093 377.515H510.765L510.696 377.209C510.041 374.516 509.393 371.869 508.791 369.42L509.08 369.702C506.237 369.003 503.501 367.922 500.946 366.49H501.35L494.649 370.877L494.398 371.045L494.177 370.831L484.678 361.63L484.464 361.424L484.625 361.18L488.779 354.314V354.68C487.275 352.17 486.111 349.471 485.318 346.654L485.57 346.89L477.733 345.258L477.481 345.204V344.945C477.413 340.291 477.352 335.858 477.283 331.685V331.449L477.512 331.403L485.295 329.511L485.097 329.702C485.807 326.875 486.889 324.156 488.314 321.614V321.859C486.744 319.402 485.265 317.174 483.954 315.137L483.862 315L483.976 314.885L493.231 305.41L493.307 305.333L493.384 305.394L498.43 308.53L499.726 309.354C499.885 309.432 500.038 309.522 500.184 309.621Z" fill="#EBEBEB"/>
<path d="M563.892 281.583C565.195 280.787 566.601 280.174 568.07 279.76L568.924 275.663L575.914 275.541L576.921 279.638C578.4 279.995 579.825 280.547 581.159 281.278L584.689 278.989L589.713 283.842L587.502 287.45C588.289 288.758 588.899 290.164 589.316 291.631L593.41 292.448L593.532 299.444L589.438 300.451C589.081 301.928 588.53 303.352 587.799 304.685L590.086 308.217L585.238 313.253L581.662 311.04C580.358 311.828 578.952 312.437 577.485 312.848L576.669 316.991L569.679 317.113L568.672 313.016C567.195 312.66 565.772 312.109 564.441 311.376L560.912 313.665L555.88 308.813L558.068 305.196C557.278 303.891 556.668 302.484 556.254 301.015L552.122 300.153L552 293.165L556.094 292.158C556.451 290.678 557.002 289.251 557.733 287.916L555.446 284.383L560.294 279.356L563.908 281.553L563.892 281.583ZM567.62 290.891C566.591 291.959 565.902 293.308 565.639 294.767C565.376 296.227 565.551 297.732 566.143 299.092C566.735 300.452 567.716 301.606 568.963 302.408C570.21 303.209 571.667 303.623 573.149 303.596C574.63 303.57 576.071 303.104 577.288 302.258C578.506 301.412 579.445 300.223 579.988 298.843C580.53 297.463 580.651 295.952 580.336 294.503C580.021 293.054 579.283 291.73 578.217 290.701C577.508 290.017 576.672 289.479 575.757 289.119C574.841 288.758 573.863 288.582 572.879 288.599C571.895 288.617 570.924 288.829 570.022 289.222C569.12 289.615 568.303 290.182 567.62 290.891Z" fill="white"/>
<path d="M567.62 290.892C568.012 290.408 568.48 289.993 569.008 289.663C570.464 288.72 572.201 288.31 573.925 288.504C575.2 288.644 576.419 289.105 577.469 289.842C578.519 290.58 579.366 291.571 579.932 292.723C580.266 293.386 580.497 294.096 580.618 294.829C580.742 295.586 580.742 296.359 580.618 297.117C580.409 298.745 579.681 300.261 578.543 301.441C577.404 302.622 575.916 303.404 574.298 303.671C573.541 303.798 572.768 303.798 572.011 303.671C571.273 303.582 570.553 303.378 569.877 303.068C568.624 302.502 567.548 301.608 566.759 300.482C565.927 299.29 565.454 297.884 565.399 296.431C565.344 294.978 565.707 293.54 566.446 292.288C566.758 291.748 567.157 291.263 567.628 290.854C567.255 291.343 566.909 291.853 566.591 292.38C565.79 293.843 565.502 295.532 565.775 297.178C565.952 298.308 566.394 299.38 567.064 300.306C567.824 301.376 568.856 302.224 570.052 302.763C571.085 303.222 572.211 303.434 573.341 303.382C574.47 303.331 575.572 303.017 576.559 302.465C577.547 301.914 578.392 301.14 579.029 300.205C579.666 299.271 580.077 298.2 580.229 297.079C580.351 296.357 580.351 295.619 580.229 294.897C580.123 294.2 579.909 293.523 579.597 292.891C579.026 291.723 578.161 290.724 577.088 289.992C576.14 289.359 575.056 288.956 573.925 288.817C572.27 288.608 570.594 288.957 569.16 289.808C568.627 290.141 568.113 290.502 567.62 290.892Z" fill="#E0E0E0"/>
<path d="M563.892 281.576C563.81 281.545 563.733 281.501 563.664 281.446L562.962 281.057L560.248 279.417H560.325L555.507 284.475V284.346L557.794 287.87V287.924V288C557.062 289.324 556.511 290.741 556.155 292.212V292.295H556.071L551.977 293.31L552.099 293.165C552.145 295.362 552.19 297.697 552.244 300.154L552.099 299.993L556.239 300.81H556.345V300.909C556.756 302.365 557.361 303.758 558.144 305.052L558.205 305.136L558.144 305.235L555.956 308.851V308.615L560.995 313.467H560.744L564.274 311.178L564.38 311.109L564.487 311.17C565.806 311.895 567.213 312.446 568.672 312.811H568.794V312.933C569.114 314.222 569.457 315.618 569.8 317.03L569.595 316.87L576.585 316.747L576.379 316.915C576.646 315.603 576.936 314.192 577.195 312.78V312.65L577.317 312.612C578.757 312.2 580.135 311.6 581.418 310.827L581.525 310.758L581.64 310.827L585.238 313.024H584.979L589.835 307.989V308.225C589.019 307.028 588.31 305.853 587.548 304.678L587.479 304.571L587.54 304.464C588.268 303.146 588.82 301.738 589.179 300.276V300.154H589.301L593.395 299.154L593.242 299.353C593.197 296.965 593.166 294.638 593.128 292.372L593.28 292.555L589.187 291.685H589.072V291.578C588.661 290.126 588.059 288.736 587.281 287.443L587.22 287.344L587.281 287.245L589.476 283.636V283.857L584.453 278.99H584.712L581.182 281.279L581.098 281.332H581.014C579.696 280.601 578.286 280.049 576.822 279.692H576.73V279.608C576.372 278.082 576.044 276.77 575.739 275.511L575.861 275.61L568.878 275.694L568.977 275.618C568.619 277.258 568.329 278.624 568.085 279.753H568.039C566.938 280.059 565.868 280.47 564.845 280.981L564.083 281.378L563.824 281.5L564.052 281.347C564.22 281.248 564.456 281.096 564.815 280.92C565.832 280.379 566.903 279.944 568.009 279.623L567.963 279.669L568.779 275.534V275.457H568.863L575.846 275.312H576.044V275.419L577.058 279.516L576.959 279.409C578.451 279.762 579.89 280.314 581.235 281.05H581.083L584.605 278.761L584.719 278.685L584.811 278.776L589.842 283.628L589.949 283.728L589.88 283.85L587.692 287.466V287.268C588.491 288.589 589.111 290.01 589.537 291.494L589.385 291.357L593.524 292.219H593.677V292.379C593.723 294.668 593.768 296.957 593.806 299.375V299.536H593.654L589.56 300.55L589.713 300.398C589.348 301.899 588.781 303.344 588.028 304.693V304.609C588.79 305.776 589.553 306.951 590.315 308.149L590.406 308.287L590.292 308.409L585.444 313.444L585.322 313.566L585.169 313.474L581.594 311.277H581.769C580.447 312.071 579.027 312.689 577.546 313.116L577.698 312.948C577.409 314.367 577.111 315.779 576.883 317.091V317.251H576.707L569.732 317.373H569.465V317.213L568.459 313.116L568.611 313.268C567.116 312.895 565.676 312.329 564.327 311.582H564.548L561.011 313.871L560.881 313.955L560.767 313.848L555.743 308.988L555.636 308.882L555.713 308.752L557.908 305.151V305.334C557.11 304.014 556.494 302.593 556.078 301.107L556.208 301.229L552.114 300.36H551.985V300.222C551.985 297.758 551.908 295.431 551.878 293.234V293.112H552L556.094 292.12L555.987 292.219C556.362 290.728 556.933 289.294 557.687 287.954V288.084L555.4 284.536L555.347 284.468L555.408 284.407C557.397 282.37 559.044 280.684 560.317 279.402H560.37L563.023 281.042L563.709 281.477L563.892 281.576Z" fill="#E0E0E0"/>
<path d="M380.063 80.4133C381.359 79.6197 382.757 79.0038 384.217 78.5823L385.079 74.4853L392.062 74.3633L393.068 78.4602C394.556 78.8147 395.99 79.3691 397.329 80.1082L400.859 77.8194L405.883 82.6793L403.695 86.2956C404.488 87.5996 405.098 89.0063 405.509 90.4764L409.649 91.2928L409.771 98.2889L405.669 99.2883C405.315 100.768 404.766 102.194 404.038 103.53L406.325 107.063L401.469 112.09L397.886 109.863C396.582 110.655 395.177 111.266 393.708 111.678L392.847 115.783L385.856 115.905L384.85 111.808C383.374 111.451 381.951 110.899 380.619 110.168L377.089 112.457L372.058 107.597L374.246 103.988C373.461 102.68 372.851 101.274 372.432 99.8071L368.3 98.9908L368.178 91.9947L372.271 90.9876C372.63 89.5055 373.181 88.0768 373.911 86.7381L371.624 83.2362L376.472 78.2085L380.085 80.3981L380.063 80.4133ZM383.79 89.7211C382.761 90.7879 382.07 92.1364 381.806 93.5959C381.542 95.0555 381.717 96.5606 382.307 97.921C382.898 99.2813 383.879 100.436 385.125 101.238C386.371 102.041 387.828 102.456 389.309 102.43C390.791 102.405 392.232 101.94 393.45 101.095C394.668 100.249 395.608 99.0617 396.152 97.6817C396.695 96.3018 396.818 94.7915 396.504 93.342C396.189 91.8924 395.453 90.5686 394.387 89.538C392.956 88.1579 391.037 87.402 389.051 87.4363C387.064 87.4707 385.172 88.2924 383.79 89.7211Z" fill="white"/>
<path d="M383.79 89.7211C384.182 89.24 384.651 88.8274 385.178 88.5004C386.64 87.5601 388.385 87.1607 390.11 87.3713C391.268 87.4917 392.382 87.8781 393.365 88.5004C394.314 89.1196 395.114 89.941 395.708 90.9058C396.303 91.8706 396.677 92.955 396.803 94.0813C396.93 95.2076 396.806 96.348 396.441 97.421C396.076 98.4939 395.479 99.4728 394.691 100.288C393.904 101.102 392.947 101.733 391.887 102.134C390.828 102.535 389.693 102.697 388.564 102.608C387.435 102.519 386.34 102.182 385.356 101.62C384.373 101.058 383.526 100.285 382.876 99.357C382.048 98.1618 381.579 96.7549 381.523 95.3018C381.468 93.8488 381.829 92.4102 382.563 91.1554C382.872 90.613 383.268 90.1257 383.737 89.7135C383.371 90.2045 383.03 90.7137 382.715 91.2393C381.913 92.7049 381.626 94.3974 381.9 96.0458C382.096 97.2512 382.589 98.3887 383.334 99.3557C384.079 100.323 385.054 101.089 386.169 101.585C386.812 101.874 387.496 102.065 388.197 102.149C388.921 102.25 389.658 102.232 390.377 102.096C391.492 101.905 392.547 101.457 393.459 100.788C394.371 100.119 395.115 99.247 395.632 98.2407C396.15 97.2344 396.427 96.1215 396.441 94.9899C396.455 93.8582 396.206 92.7388 395.713 91.72C395.146 90.5432 394.275 89.5396 393.19 88.8132C392.241 88.1801 391.158 87.7753 390.026 87.6307C388.371 87.4245 386.695 87.7761 385.262 88.6301C384.263 89.2633 383.821 89.7592 383.79 89.7211Z" fill="#E0E0E0"/>
<path d="M380.063 80.4129C379.979 80.3789 379.9 80.3354 379.826 80.2832L379.133 79.8865L376.419 78.2462H376.495L371.677 83.3044V83.1595L374.002 86.6842V86.8139C373.271 88.1388 372.72 89.555 372.363 91.0253V91.1093H372.279L368.208 92.1316L368.33 91.979C368.368 94.1839 368.422 96.5566 368.467 98.9675L368.33 98.8073L372.47 99.6236H372.576V99.7304C372.991 101.17 373.596 102.548 374.376 103.827L374.429 103.927L374.376 104.018L372.188 107.634V107.406L377.227 112.25H376.967C378.08 111.525 379.254 110.724 380.505 109.961L380.611 109.9L380.711 109.961C382.029 110.692 383.439 111.244 384.903 111.602H384.98V111.724C385.285 113.013 385.643 114.417 385.986 115.828L385.78 115.66L392.755 115.538L392.55 115.706C392.832 114.402 393.121 112.99 393.373 111.602V111.472H393.495C394.933 111.06 396.31 110.457 397.589 109.679L397.703 109.61L397.817 109.679L401.553 111.968H401.294L406.142 106.94V107.207L403.855 103.675L403.786 103.568L403.847 103.454C404.577 102.136 405.128 100.728 405.486 99.265V99.1353H405.608L409.702 98.1282L409.55 98.3342C409.504 95.9539 409.466 93.6117 409.435 91.3458L409.588 91.5289L405.448 90.7125H405.334V90.5981C404.922 89.1586 404.32 87.7807 403.542 86.5011L403.489 86.402L403.542 86.3104L405.738 82.7017V82.923L400.76 77.9181H400.989L397.451 80.2069L397.375 80.2527L397.291 80.2069C395.973 79.4759 394.563 78.9243 393.099 78.5666H393.007V78.4751L392.016 74.3781L392.138 74.4773L385.155 74.5688L385.246 74.4926C384.888 76.1329 384.606 77.4909 384.362 78.5895C383.262 78.901 382.193 79.3121 381.168 79.8178L380.406 80.2146C380.327 80.2667 380.242 80.3102 380.154 80.3443C380.226 80.2873 380.303 80.2363 380.383 80.1917C380.543 80.0925 380.779 79.9399 381.145 79.7644C382.161 79.218 383.232 78.7807 384.339 78.4598L384.294 78.5132C384.515 77.3841 384.789 76.0566 385.109 74.3705V74.2942H385.193L392.184 74.1416H392.275V74.2408C392.588 75.5073 392.923 76.8424 393.297 78.3377L393.198 78.2386C394.689 78.5936 396.128 79.1452 397.474 79.8789H397.314L400.836 77.5901L400.951 77.5138L401.042 77.6053L406.081 82.45L406.18 82.5491L406.104 82.6712L403.924 86.2875V86.0968C404.71 87.4439 405.31 88.8914 405.708 90.3997L405.563 90.27L409.656 91.0864H409.817V91.2466C409.855 93.5354 409.908 95.8242 409.946 98.2351V98.4182H409.786L405.692 99.4252L405.852 99.265C405.486 100.767 404.917 102.212 404.16 103.56V103.347L406.531 106.994L406.622 107.131L406.508 107.253L401.66 112.288L401.53 112.41L401.385 112.319L397.772 110.129H397.939C396.618 110.924 395.198 111.542 393.716 111.968L393.868 111.8C393.571 113.227 393.281 114.638 392.999 115.897V116.065H392.832L385.856 116.179H385.681L385.643 116.011L384.644 111.914L384.789 112.075C383.293 111.696 381.853 111.124 380.505 110.373H380.718L377.181 112.662L376.99 112.784L376.876 112.67L371.852 107.81L371.738 107.703L371.822 107.573L374.017 103.965V104.155C373.224 102.836 372.608 101.418 372.188 99.9364L372.325 100.058L368.208 99.1811H368.079V99.0514C368.079 96.5871 368.01 94.2602 367.972 92.0553V91.9332H368.086L372.18 90.9338L372.081 91.0406C372.448 89.5461 373.018 88.1087 373.773 86.7682V86.8979L371.486 83.3578L371.441 83.2892L371.494 83.2205L376.411 78.2233H376.502L379.155 79.8636L379.842 80.2908L380.063 80.4129Z" fill="#E0E0E0"/>
<path d="M438.122 358.777C439.035 358.227 440.017 357.801 441.042 357.511L441.637 354.627L446.5 354.543L447.209 357.404C448.241 357.66 449.236 358.05 450.167 358.564L452.622 356.931L456.129 360.326L454.604 362.844C455.147 363.757 455.57 364.736 455.862 365.758L458.751 366.361L458.827 371.228L455.968 371.938C455.716 372.97 455.327 373.963 454.81 374.89L456.449 377.347L453.064 380.849L450.548 379.323C449.641 379.873 448.664 380.299 447.644 380.59L447.034 383.481L442.17 383.557L441.476 380.696C440.443 380.445 439.448 380.055 438.519 379.537L436.056 381.177L432.565 377.79L434.089 375.272C433.534 374.363 433.106 373.383 432.816 372.357L429.942 371.755L429.851 366.887L432.71 366.185C432.962 365.152 433.354 364.159 433.876 363.233L432.245 360.769L435.622 357.267L438.137 358.793L438.122 358.777ZM440.722 365.27C440.001 366.013 439.516 366.953 439.329 367.971C439.142 368.99 439.261 370.041 439.671 370.992C440.082 371.943 440.765 372.75 441.634 373.312C442.503 373.875 443.519 374.166 444.554 374.15C445.588 374.134 446.595 373.811 447.446 373.222C448.297 372.633 448.955 371.805 449.336 370.842C449.716 369.879 449.803 368.825 449.584 367.812C449.366 366.8 448.853 365.875 448.109 365.155C447.115 364.195 445.782 363.668 444.401 363.688C443.02 363.708 441.703 364.274 440.737 365.262L440.722 365.27Z" fill="white"/>
<path d="M440.722 365.247C441 364.923 441.329 364.647 441.697 364.431C442.703 363.768 443.908 363.476 445.105 363.607C445.921 363.702 446.703 363.983 447.392 364.431C448.19 364.958 448.834 365.687 449.26 366.544C449.732 367.487 449.907 368.551 449.763 369.596C449.615 370.73 449.108 371.788 448.314 372.612C447.521 373.436 446.484 373.983 445.357 374.173C444.814 374.265 444.26 374.265 443.718 374.173C443.205 374.113 442.706 373.972 442.239 373.754C441.366 373.359 440.616 372.737 440.066 371.953C439.588 371.272 439.277 370.488 439.159 369.664C438.984 368.475 439.227 367.262 439.845 366.231C440.059 365.852 440.337 365.514 440.668 365.232C440.411 365.572 440.172 365.926 439.952 366.292C439.477 367.149 439.255 368.123 439.312 369.1C439.369 370.078 439.701 371.02 440.272 371.816C440.87 372.632 441.698 373.252 442.649 373.596C443.6 373.94 444.633 373.993 445.614 373.747C446.596 373.502 447.482 372.969 448.16 372.217C448.837 371.466 449.276 370.529 449.42 369.527C449.578 368.533 449.424 367.515 448.978 366.613C448.609 365.843 448.052 365.179 447.36 364.682C446.667 364.185 445.86 363.87 445.014 363.767C443.86 363.615 442.689 363.857 441.69 364.453C441.057 364.942 440.745 365.3 440.722 365.247Z" fill="#E0E0E0"/>
<path d="M438.122 358.777L437.962 358.693L437.482 358.411L435.583 357.289H435.644L432.283 360.822V360.722L433.922 363.156V363.21C433.415 364.132 433.033 365.117 432.786 366.139V366.208H432.725L429.866 366.91L429.95 366.811C429.95 368.337 430.018 369.969 430.049 371.686L429.957 371.571L432.839 372.166H432.908V372.243C433.198 373.254 433.619 374.223 434.158 375.127L434.204 375.188L434.158 375.256L432.633 377.774V377.652L436.14 381.039H435.972L438.427 379.399L438.503 379.353L438.572 379.391C439.494 379.9 440.478 380.287 441.499 380.544H441.583V380.627C441.804 381.528 442.04 382.497 442.277 383.488L442.14 383.374L447.003 383.29L446.866 383.412L447.461 380.521V380.437H447.552C448.558 380.147 449.522 379.726 450.419 379.186L450.495 379.14L450.571 379.186L453.087 380.711H452.904C454.047 379.521 455.191 378.362 456.281 377.202V377.393L454.642 374.936L454.596 374.86L454.642 374.783C455.154 373.865 455.541 372.882 455.793 371.861V371.777H455.877L458.736 371.083L458.629 371.22C458.629 369.58 458.568 367.955 458.545 366.353L458.652 366.483L455.778 365.888H455.694V365.811C455.412 364.798 454.994 363.828 454.451 362.927L454.406 362.859L454.451 362.798L455.976 360.28V360.433L452.538 357.053H452.69L450.228 358.693H450.114C449.198 358.175 448.216 357.784 447.194 357.533H447.133V357.48C446.889 356.435 446.66 355.496 446.447 354.604L446.538 354.68L441.659 354.749L441.728 354.688C441.484 355.84 441.278 356.778 441.11 357.564C440.347 357.77 439.605 358.046 438.892 358.388L438.366 358.663L438.191 358.754C438.239 358.709 438.293 358.671 438.351 358.64L438.869 358.342C439.577 357.97 440.32 357.668 441.088 357.442C441.248 356.626 441.438 355.702 441.667 354.558H441.728L446.592 354.451H446.668V354.52L447.377 357.381L447.308 357.305C448.348 357.563 449.35 357.955 450.289 358.472H450.175L452.629 356.832L452.713 356.786L452.774 356.847L456.281 360.227L456.357 360.288L456.304 360.379L454.779 362.897V362.76C455.337 363.676 455.768 364.664 456.06 365.697L455.953 365.605L458.835 366.2H458.926V366.307C458.926 367.894 458.957 369.519 459.018 371.182V371.297H458.926L456.067 372.006L456.174 371.899C455.924 372.945 455.532 373.952 455.008 374.89V374.73L456.639 377.194L456.708 377.293L456.624 377.37C455.534 378.529 454.406 379.704 453.247 380.879L453.163 380.971L453.064 380.902L450.548 379.376H450.693C449.777 379.932 448.79 380.361 447.758 380.65L447.865 380.536C447.651 381.528 447.445 382.512 447.255 383.42V383.534H447.14L442.231 383.618H442.109V383.504C441.865 382.52 441.629 381.535 441.408 380.643L441.514 380.75C440.452 380.519 439.426 380.144 438.465 379.636H438.61L436.155 381.276L436.056 381.345L435.987 381.261L432.481 377.873L432.405 377.797L432.465 377.713L433.99 375.195V375.363C433.441 374.441 433.016 373.451 432.725 372.418L432.816 372.502L429.942 371.892H429.843V371.8C429.843 370.091 429.79 368.459 429.767 366.925V366.849H429.851L432.709 366.155L432.641 366.223C432.899 365.183 433.297 364.182 433.822 363.248V363.339C433.251 362.454 432.709 361.615 432.183 360.875V360.867L432.229 360.829L435.629 357.335L437.482 358.487L437.962 358.792L438.122 358.777Z" fill="white"/>
<path d="M532.629 250.692C533.398 250.226 534.222 249.859 535.084 249.601L535.602 247.145L539.78 247.068L540.382 249.533C541.271 249.745 542.125 250.081 542.921 250.532L545.032 249.144L548.043 252.05L546.732 254.209C547.204 254.992 547.57 255.833 547.822 256.712L550.277 257.231L550.353 261.419L547.891 262.014C547.678 262.903 547.341 263.759 546.892 264.555L548.28 266.668L545.383 269.72L543.271 268.4C542.504 268.865 541.678 269.227 540.816 269.476L540.298 271.94L536.113 272.009L535.518 269.552C534.632 269.33 533.779 268.994 532.98 268.553L530.868 269.941L527.819 267.027L529.13 264.868C528.664 264.096 528.3 263.268 528.047 262.403L525.593 261.892L525.516 257.711L527.979 257.101C528.2 256.214 528.536 255.36 528.977 254.56L527.59 252.447L530.502 249.433L532.659 250.746L532.629 250.692ZM534.855 256.269C534.237 256.908 533.822 257.716 533.662 258.59C533.503 259.465 533.607 260.368 533.96 261.183C534.313 261.999 534.901 262.692 535.647 263.173C536.394 263.655 537.267 263.904 538.155 263.889C539.044 263.874 539.908 263.596 540.638 263.089C541.368 262.583 541.932 261.871 542.257 261.044C542.583 260.216 542.656 259.311 542.468 258.442C542.279 257.573 541.837 256.78 541.198 256.163C540.34 255.341 539.193 254.892 538.007 254.914C536.82 254.935 535.69 255.425 534.863 256.277L534.855 256.269Z" fill="#F5F5F5"/>
<path d="M534.863 256.269C535.09 255.971 535.366 255.713 535.678 255.506C536.544 254.942 537.579 254.697 538.606 254.812C539.371 254.891 540.103 255.165 540.733 255.607C541.362 256.049 541.869 256.644 542.204 257.337C542.608 258.154 542.759 259.073 542.638 259.977C542.502 260.949 542.065 261.853 541.388 262.563C540.707 263.269 539.817 263.737 538.85 263.898C538.393 263.975 537.927 263.975 537.47 263.898C537.029 263.846 536.599 263.722 536.197 263.532C535.101 263.042 534.245 262.137 533.817 261.015C533.388 259.894 533.421 258.648 533.91 257.551C533.986 257.383 534.062 257.23 534.154 257.07C534.343 256.749 534.582 256.461 534.863 256.216C534.622 256.495 534.412 256.799 534.237 257.124C533.766 258.003 533.594 259.013 533.75 260C533.864 260.723 534.159 261.407 534.607 261.987C535.054 262.567 535.64 263.025 536.311 263.319C536.692 263.495 537.099 263.608 537.516 263.654C537.95 263.723 538.392 263.723 538.827 263.654C539.741 263.498 540.581 263.053 541.224 262.384C541.868 261.716 542.28 260.859 542.402 259.939C542.478 259.507 542.478 259.066 542.402 258.634C542.248 257.696 541.792 256.833 541.105 256.176C540.417 255.52 539.535 255.105 538.59 254.995C537.598 254.868 536.591 255.077 535.732 255.59C535.431 255.801 535.14 256.028 534.863 256.269Z" fill="#F5F5F5"/>
<path d="M532.629 250.692L532.484 250.624L532.072 250.38L530.433 249.418H530.479L527.598 252.47V252.386L528.993 254.5V254.538C528.552 255.331 528.221 256.18 528.009 257.063V257.109H527.956L525.501 257.719L525.577 257.628C525.577 258.947 525.623 260.351 525.654 261.816L525.577 261.717L528.032 262.228H528.101V262.281C528.346 263.148 528.708 263.977 529.176 264.746V264.86C528.779 265.532 528.36 266.264 527.864 267.019V266.882L530.914 269.781H530.769L532.881 268.393L532.934 268.347L533.002 268.393C533.793 268.827 534.636 269.158 535.511 269.377H535.579V269.445C535.77 270.208 535.983 271.086 536.189 271.91L536.067 271.81L540.245 271.734L540.123 271.833C540.283 271.07 540.466 270.193 540.633 269.377V269.316H540.71C541.574 269.073 542.4 268.711 543.164 268.24L543.233 268.202L543.294 268.24L545.459 269.552H545.299L548.203 266.539V266.699L546.816 264.585V264.456C547.252 263.666 547.583 262.822 547.799 261.946V261.869H547.876L550.33 261.267L550.239 261.389C550.239 259.962 550.239 258.566 550.17 257.208L550.269 257.315L547.807 256.796H547.738V256.735C547.493 255.869 547.131 255.04 546.664 254.271V254.156L547.982 252.005V252.134L544.979 249.212H545.07L542.959 250.593H542.859C542.07 250.148 541.223 249.812 540.344 249.594H540.29V249.479C540.069 248.587 539.886 247.786 539.696 247.023L539.772 247.084L535.594 247.137H535.648C535.434 248.121 535.267 248.93 535.114 249.594C534.456 249.787 533.818 250.042 533.208 250.357L532.759 250.593L532.614 250.67L532.751 250.57C532.842 250.509 532.987 250.418 533.185 250.311C533.797 249.996 534.438 249.74 535.099 249.548C535.236 248.877 535.404 248.068 535.602 247.091V247.046H535.648L539.825 246.954H539.894V247.008C540.077 247.77 540.283 248.579 540.504 249.472L540.443 249.411C541.336 249.632 542.197 249.968 543.004 250.41H542.905L545.017 249.029L545.086 248.976L545.139 249.037L548.188 251.936L548.242 251.997V252.066L546.946 254.232V254.057C547.423 254.847 547.79 255.7 548.036 256.59L547.96 256.506L550.414 257.017H550.506V257.109C550.506 258.467 550.559 259.863 550.59 261.297V261.389H550.49L548.028 261.999L548.12 261.908C547.897 262.805 547.559 263.669 547.113 264.479V264.349L548.501 266.462L548.554 266.546L548.478 266.623L545.581 269.629L545.505 269.705L545.421 269.651L543.264 268.347H543.393C542.603 268.825 541.752 269.192 540.862 269.438L540.954 269.346C540.771 270.163 540.603 271.04 540.435 271.803V271.902H540.344L536.159 271.971H536.059V271.879L535.457 269.415L535.549 269.506C534.654 269.286 533.793 268.947 532.987 268.499H533.109L530.998 269.888L530.914 269.934L530.845 269.865L527.742 267.088L527.674 267.027L527.727 266.951C528.177 266.188 528.627 265.425 529.038 264.784V264.898C528.563 264.109 528.194 263.259 527.941 262.373L528.024 262.449L525.562 261.923H525.486V261.847C525.486 260.374 525.486 258.986 525.417 257.666V257.589H525.493L527.948 256.987L527.88 257.055C528.108 256.163 528.451 255.303 528.901 254.5V254.583L527.514 252.462V252.417L530.441 249.426L532.072 250.418C532.248 250.525 532.377 250.616 532.484 250.67L532.629 250.692Z" fill="#F5F5F5"/>
<path d="M518.671 332.334L274.151 332.083C273.518 332.083 272.912 331.831 272.464 331.383C272.017 330.935 271.765 330.328 271.765 329.695V162.551C271.767 161.918 272.019 161.312 272.466 160.865C272.913 160.417 273.519 160.165 274.151 160.163H516.284C516.917 160.163 517.524 160.415 517.972 160.863C518.419 161.31 518.671 161.918 518.671 162.551V332.334Z" fill="#EBEBEB"/>
<path d="M518.671 332.342H271.597L272.024 173.019H518.671V332.342Z" fill="white"/>
<path d="M518.861 332.524H271.392V332.334L271.819 172.819H518.815L518.861 332.524ZM271.788 332.143H518.48V173.186H272.245L271.788 332.143Z" fill="#262626"/>
<path d="M367.377 250.242C367.377 231.482 377.646 220.877 391.178 220.877C404.709 220.877 415.062 231.482 415.062 250.242C415.062 269.003 404.801 279.577 391.178 279.577C377.555 279.577 367.377 268.972 367.377 250.242ZM404.381 250.242C404.381 236.456 398.999 230.093 391.178 230.093C383.356 230.093 378.05 236.456 378.05 250.242C378.05 264.028 383.432 270.384 391.178 270.384C398.923 270.384 404.381 263.975 404.381 250.242Z" fill="#FF0037"/>
<path d="M473.09 265.776H462.982V278.746H452.713V265.776H421.412V258.452L449.542 221.663H460.87L434.371 256.819H453.033V245.322H462.982V256.819H473.09V265.776Z" fill="#FF0037"/>
<path d="M361.09 265.776H350.982V278.746H340.713V265.776H309.412V258.452L337.542 221.663H348.87L322.371 256.819H341.033V245.322H350.982V256.819H361.09V265.776Z" fill="#FF0037"/>
<path d="M317.299 297.178H319.182V302.595C317.691 303.785 315.829 304.411 313.922 304.365C309.661 304.365 306.528 301.367 306.528 297.262C306.528 293.158 309.661 290.152 313.968 290.152C314.959 290.11 315.947 290.279 316.867 290.649C317.787 291.018 318.618 291.58 319.304 292.296L318.077 293.532C317.549 293.006 316.92 292.593 316.228 292.316C315.537 292.039 314.796 291.905 314.052 291.922C312.637 291.922 311.279 292.485 310.278 293.486C309.278 294.488 308.715 295.846 308.715 297.262C308.715 298.679 309.278 300.037 310.278 301.039C311.279 302.04 312.637 302.603 314.052 302.603C315.202 302.637 316.335 302.326 317.307 301.71L317.299 297.178Z" fill="#262626"/>
<path d="M331.045 297.857V304.204H329.238V302.816C328.838 303.341 328.311 303.756 327.707 304.023C327.103 304.29 326.442 304.4 325.784 304.342C323.406 304.342 321.896 303.067 321.896 301.244C321.896 299.558 322.987 298.192 326.12 298.192H329.169V297.811C329.169 296.209 328.239 295.27 326.349 295.27C325.139 295.25 323.958 295.637 322.994 296.369L322.232 294.935C323.494 294.02 325.02 293.546 326.577 293.584C329.413 293.584 331.045 294.973 331.045 297.857ZM329.139 300.992V299.52H326.204C324.321 299.52 323.779 300.283 323.779 301.152C323.779 302.198 324.656 302.854 326.066 302.854C326.706 302.904 327.345 302.751 327.892 302.417C328.439 302.082 328.868 301.584 329.116 300.992H329.139Z" fill="#262626"/>
<path d="M340.482 303.594C339.833 304.108 339.023 304.378 338.195 304.357C336.068 304.357 334.864 303.182 334.864 301.061V295.255H333.08V293.729H334.864V291.44H336.77V293.729H339.766V295.255H336.754V300.954C336.717 301.183 336.733 301.418 336.801 301.64C336.868 301.862 336.985 302.066 337.144 302.236C337.302 302.406 337.496 302.538 337.713 302.621C337.929 302.704 338.162 302.737 338.393 302.717C338.944 302.733 339.482 302.558 339.918 302.221L340.482 303.594Z" fill="#262626"/>
<path d="M351.879 299.582H343.356C343.592 301.428 345.079 302.633 347.168 302.633C347.738 302.66 348.307 302.56 348.834 302.341C349.361 302.122 349.833 301.789 350.217 301.367L351.269 302.595C350.746 303.168 350.103 303.618 349.386 303.913C348.67 304.209 347.896 304.342 347.122 304.304C343.73 304.304 341.473 302.061 341.473 298.964C341.448 298.287 341.556 297.612 341.791 296.978C342.026 296.343 342.384 295.761 342.844 295.265C343.305 294.769 343.858 294.369 344.473 294.087C345.088 293.805 345.752 293.648 346.428 293.623H346.749C349.798 293.623 351.948 295.813 351.948 299.048C351.94 299.227 351.917 299.406 351.879 299.582ZM343.356 298.216H350.095C349.999 297.389 349.602 296.627 348.981 296.073C348.36 295.52 347.557 295.214 346.726 295.214C345.894 295.214 345.091 295.52 344.47 296.073C343.849 296.627 343.453 297.389 343.356 298.216Z" fill="#262626"/>
<path d="M370.259 293.684L366.333 304.204H364.503L361.454 296.224L358.405 304.204H356.583L352.672 293.684H354.486L357.536 302.076L360.715 293.684H362.315L365.433 302.076L368.567 293.684H370.259Z" fill="#262626"/>
<path d="M380.169 297.857V304.205H378.362V302.816C377.964 303.341 377.439 303.757 376.836 304.024C376.234 304.291 375.573 304.4 374.917 304.342C372.531 304.342 371.029 303.068 371.029 301.244C371.029 299.558 372.119 298.193 375.252 298.193H378.263V297.811C378.263 296.209 377.333 295.271 375.45 295.271C374.244 295.266 373.071 295.666 372.119 296.407L371.357 294.973C372.616 294.055 374.144 293.58 375.702 293.623C378.553 293.585 380.169 294.973 380.169 297.857ZM378.263 300.993V299.52H375.328C373.445 299.52 372.912 300.283 372.912 301.153C372.912 302.198 373.781 302.854 375.199 302.854C375.838 302.904 376.477 302.751 377.024 302.417C377.572 302.083 378 301.584 378.248 300.993H378.263Z" fill="#262626"/>
<path d="M392.809 293.684L387.709 305.257C386.779 307.485 385.567 308.179 383.966 308.179C382.975 308.207 382.011 307.858 381.267 307.203L382.075 305.776C382.58 306.27 383.26 306.544 383.966 306.539C384.873 306.539 385.452 306.127 385.963 304.914L386.306 304.151L381.694 293.684H383.676L387.343 302.076L390.972 293.684H392.809Z" fill="#262626"/>
<path d="M405.837 303.594C405.188 304.108 404.378 304.378 403.55 304.357C401.431 304.357 400.219 303.182 400.219 301.061V295.255H398.435V293.729H400.226V291.44H402.132V293.729H405.181V295.255H402.132V300.954C402.099 301.153 402.106 301.356 402.152 301.551C402.198 301.747 402.283 301.932 402.4 302.095C402.518 302.258 402.667 302.396 402.838 302.502C403.009 302.607 403.199 302.677 403.398 302.709C403.524 302.724 403.652 302.724 403.779 302.709C404.329 302.726 404.868 302.551 405.303 302.213L405.837 303.594Z" fill="#262626"/>
<path d="M407.796 290.433C407.8 290.1 407.935 289.782 408.172 289.548C408.409 289.314 408.729 289.182 409.062 289.182C409.223 289.174 409.384 289.198 409.536 289.252C409.688 289.306 409.828 289.39 409.948 289.498C410.068 289.607 410.165 289.738 410.234 289.884C410.303 290.03 410.342 290.188 410.35 290.35V290.388C410.353 290.557 410.323 290.725 410.261 290.883C410.199 291.04 410.106 291.184 409.989 291.306C409.871 291.428 409.731 291.525 409.576 291.593C409.421 291.661 409.254 291.697 409.085 291.7C408.915 291.703 408.747 291.673 408.59 291.611C408.432 291.549 408.289 291.456 408.167 291.338C408.045 291.221 407.948 291.08 407.88 290.925C407.813 290.77 407.776 290.603 407.773 290.433H407.796ZM408.132 293.684H410.038V304.204H408.132V293.684Z" fill="#262626"/>
<path d="M431.116 298.154V304.204H429.195V298.368C429.195 296.308 428.204 295.316 426.474 295.316C424.575 295.316 423.325 296.529 423.325 298.81V304.227H421.419V298.391C421.419 296.331 420.428 295.339 418.698 295.339C416.8 295.339 415.549 296.552 415.549 298.833V304.25H413.644V293.683H415.473V295.255C415.897 294.703 416.449 294.262 417.081 293.971C417.713 293.679 418.407 293.547 419.102 293.584C419.831 293.534 420.56 293.69 421.206 294.034C421.851 294.378 422.387 294.896 422.753 295.53C423.217 294.898 423.829 294.39 424.535 294.051C425.241 293.711 426.019 293.551 426.801 293.584C429.378 293.584 431.116 295.057 431.116 298.154Z" fill="#262626"/>
<path d="M444.144 299.582H435.614C435.743 300.48 436.209 301.295 436.917 301.862C437.625 302.429 438.522 302.705 439.426 302.633C439.996 302.66 440.564 302.56 441.092 302.341C441.619 302.122 442.091 301.789 442.475 301.367L443.527 302.595C443.004 303.168 442.361 303.618 441.644 303.913C440.927 304.209 440.154 304.342 439.38 304.304C435.987 304.304 433.731 302.061 433.731 298.964C433.705 298.287 433.813 297.612 434.049 296.978C434.284 296.343 434.642 295.761 435.102 295.265C435.562 294.769 436.116 294.369 436.731 294.087C437.346 293.805 438.01 293.648 438.686 293.623H439.006C442.056 293.623 444.198 295.813 444.198 299.048C444.192 299.227 444.174 299.405 444.144 299.582ZM435.614 298.216H442.361C442.272 297.382 441.878 296.611 441.256 296.051C440.633 295.49 439.825 295.18 438.987 295.18C438.15 295.18 437.342 295.49 436.719 296.051C436.096 296.611 435.703 297.382 435.614 298.216Z" fill="#262626"/>
<path d="M445.852 298.948C445.827 297.866 446.123 296.802 446.702 295.888C447.281 294.975 448.118 294.254 449.106 293.817C450.095 293.379 451.191 293.245 452.256 293.431C453.321 293.617 454.307 294.115 455.089 294.861C455.871 295.608 456.415 296.57 456.651 297.625C456.887 298.681 456.805 299.783 456.415 300.792C456.025 301.801 455.345 302.672 454.461 303.294C453.577 303.917 452.528 304.263 451.448 304.289H451.303C450.617 304.321 449.931 304.218 449.285 303.986C448.639 303.753 448.045 303.395 447.537 302.932C447.03 302.469 446.618 301.911 446.326 301.289C446.034 300.667 445.868 299.993 445.837 299.307C445.852 299.192 445.852 299.07 445.852 298.948ZM454.855 298.948C454.824 298.254 454.59 297.585 454.182 297.023C453.774 296.462 453.211 296.032 452.562 295.787C451.912 295.543 451.205 295.495 450.529 295.649C449.852 295.803 449.236 296.152 448.755 296.653C448.275 297.154 447.953 297.785 447.827 298.468C447.702 299.151 447.78 299.856 448.051 300.495C448.323 301.134 448.775 301.68 449.353 302.064C449.931 302.448 450.609 302.654 451.303 302.656C451.756 302.671 452.208 302.597 452.632 302.437C453.057 302.277 453.445 302.035 453.776 301.725C454.107 301.414 454.373 301.041 454.56 300.628C454.746 300.214 454.849 299.768 454.863 299.314C454.874 299.192 454.874 299.07 454.863 298.948H454.855Z" fill="#262626"/>
<path d="M469.21 293.684V304.204H467.403V302.618C466.992 303.171 466.453 303.616 465.831 303.914C465.209 304.212 464.524 304.353 463.836 304.327C461.114 304.327 459.315 302.839 459.315 299.749V293.729H461.213V299.566C461.213 301.633 462.242 302.663 464.041 302.663C466.031 302.663 467.297 301.435 467.297 299.169V293.729L469.21 293.684Z" fill="#262626"/>
<path d="M478.747 303.594C478.097 304.108 477.288 304.378 476.46 304.357C474.341 304.357 473.129 303.182 473.129 301.061V295.255H471.345V293.729H473.129V291.44H475.034V293.729H478.084V295.255H475.034V300.954C475.002 301.153 475.009 301.356 475.055 301.551C475.101 301.747 475.185 301.932 475.303 302.095C475.42 302.258 475.569 302.396 475.74 302.502C475.911 302.607 476.101 302.677 476.3 302.709C476.427 302.724 476.554 302.724 476.681 302.709C477.232 302.733 477.774 302.557 478.206 302.213L478.747 303.594Z" fill="#262626"/>
<path d="M374.833 205.634V208.136H365.685V196.692H374.658V199.195H368.887V201.125H373.972V203.551H368.887V205.642L374.833 205.634Z" fill="#FF0037"/>
<path d="M381.694 205.091H379.933V208.143H376.663V196.699H381.93C385.056 196.699 387.015 198.324 387.015 200.941C387.043 201.699 386.844 202.447 386.445 203.091C386.046 203.735 385.464 204.246 384.774 204.557L387.244 208.151H383.775L381.694 205.091ZM381.694 199.24H379.903V202.589H381.694C383.036 202.589 383.707 201.971 383.707 200.926C383.707 199.881 383.036 199.24 381.694 199.24Z" fill="#FF0037"/>
<path d="M393.762 205.091H391.993V208.143H388.791V196.699H394.021C397.146 196.699 399.106 198.324 399.106 200.941C399.133 201.699 398.935 202.447 398.536 203.091C398.137 203.735 397.555 204.246 396.864 204.557L399.334 208.151H395.866L393.762 205.091ZM393.762 199.24H391.963V202.589H393.762C395.103 202.589 395.774 201.971 395.774 200.926C395.774 199.881 395.134 199.24 393.792 199.24H393.762Z" fill="#FF0037"/>
<path d="M400.272 202.452C400.272 199.018 402.963 196.493 406.63 196.493C410.297 196.493 412.988 199.018 412.988 202.452C412.988 205.885 410.289 208.403 406.63 208.403C402.971 208.403 400.272 205.847 400.272 202.452ZM409.718 202.452C409.683 201.847 409.473 201.266 409.112 200.78C408.752 200.295 408.257 199.925 407.689 199.717C407.121 199.51 406.504 199.473 405.916 199.613C405.327 199.752 404.792 200.061 404.377 200.501C403.962 200.941 403.684 201.493 403.579 202.089C403.474 202.685 403.546 203.299 403.786 203.855C404.026 204.41 404.423 204.884 404.928 205.216C405.434 205.548 406.025 205.725 406.63 205.725C407.438 205.737 408.217 205.428 408.797 204.866C409.377 204.304 409.711 203.534 409.725 202.726C409.73 202.635 409.728 202.543 409.718 202.452Z" fill="#FF0037"/>
<path d="M419.689 205.091H417.928V208.143H414.711V196.699H419.94C423.066 196.699 425.025 198.324 425.025 200.941C425.053 201.699 424.854 202.447 424.455 203.091C424.056 203.735 423.474 204.246 422.784 204.557L425.254 208.151H421.785L419.689 205.091ZM419.689 199.24H417.897V202.589H419.689C421.03 202.589 421.701 201.971 421.701 200.926C421.701 199.881 421.061 199.24 419.719 199.24H419.689Z" fill="#FF0037"/>
<path d="M302.571 166.801C302.571 167.253 302.437 167.696 302.186 168.072C301.934 168.448 301.577 168.742 301.159 168.915C300.741 169.088 300.282 169.134 299.838 169.045C299.394 168.957 298.987 168.739 298.667 168.419C298.347 168.099 298.129 167.691 298.041 167.247C297.953 166.803 297.998 166.343 298.171 165.925C298.344 165.506 298.637 165.149 299.013 164.897C299.39 164.646 299.832 164.512 300.284 164.512C300.891 164.512 301.472 164.753 301.901 165.182C302.33 165.611 302.571 166.193 302.571 166.801Z" fill="#00DF22"/>
<path d="M288.552 166.801C288.552 167.253 288.418 167.696 288.166 168.072C287.915 168.448 287.558 168.742 287.14 168.915C286.722 169.088 286.262 169.134 285.819 169.045C285.375 168.957 284.967 168.739 284.648 168.419C284.328 168.099 284.11 167.691 284.022 167.247C283.933 166.803 283.979 166.343 284.152 165.925C284.325 165.506 284.618 165.149 284.994 164.897C285.37 164.646 285.812 164.512 286.265 164.512C286.871 164.512 287.453 164.753 287.882 165.182C288.311 165.611 288.552 166.193 288.552 166.801Z" fill="#FF0000"/>
<path d="M295.283 166.801C295.283 167.253 295.149 167.696 294.898 168.072C294.647 168.448 294.289 168.742 293.871 168.915C293.454 169.088 292.994 169.134 292.55 169.045C292.106 168.957 291.699 168.739 291.379 168.419C291.059 168.099 290.841 167.691 290.753 167.247C290.665 166.803 290.71 166.343 290.883 165.925C291.056 165.506 291.35 165.149 291.726 164.897C292.102 164.646 292.544 164.512 292.996 164.512C293.603 164.512 294.185 164.753 294.613 165.182C295.042 165.611 295.283 166.193 295.283 166.801Z" fill="#FFCC25"/>
<path d="M478.127 135.947L474.959 141.163L483.096 146.112L486.264 140.896L478.127 135.947Z" fill="#262626"/>
<path d="M552.434 112.956L547.921 121.347L553.292 124.239L557.804 115.848L552.434 112.956Z" fill="#262626"/>
<path d="M482.322 134.642L475.797 145.384L467.03 140.044C468.213 135.947 470.466 132.239 473.555 129.302L482.322 134.642Z" fill="#262626"/>
<path d="M559.318 119.91L548.272 113.952L553.136 104.911C557.29 105.887 561.108 107.955 564.197 110.9L559.318 119.91Z" fill="#262626"/>
<g opacity="0.2">
<path d="M482.322 134.642L475.797 145.384L467.03 140.044C468.213 135.947 470.466 132.239 473.555 129.302L482.322 134.642Z" fill="black"/>
<path d="M559.318 119.91L548.272 113.952L553.136 104.911C557.29 105.887 561.108 107.955 564.197 110.9L559.318 119.91Z" fill="black"/>
</g>
<path d="M514.313 107.841L507.447 110.075L510.931 120.799L517.796 118.565L514.313 107.841Z" fill="#262626"/>
<path d="M519.029 109.862L504.887 114.44L501.137 102.881C505.362 100.128 510.242 98.5479 515.278 98.3037L519.029 109.862Z" fill="#FF0037"/>
<path d="M565.884 203.837C586.399 183.306 586.399 150.018 565.884 129.487C545.368 108.955 512.107 108.955 491.591 129.487C471.076 150.018 471.076 183.306 491.591 203.837C512.107 224.369 545.368 224.369 565.884 203.837Z" fill="#FF0037"/>
<path d="M528.566 210.387C552.93 210.387 572.682 190.62 572.682 166.236C572.682 141.852 552.93 122.085 528.566 122.085C504.201 122.085 484.449 141.852 484.449 166.236C484.449 190.62 504.201 210.387 528.566 210.387Z" fill="#FAFAFA"/>
<path d="M497.516 126.113C496.934 126.716 496.313 127.28 495.655 127.799C493.963 129.312 492.362 130.925 490.86 132.628C485.883 138.242 482.209 144.888 480.1 152.089C477.991 159.291 477.501 166.871 478.663 174.285C479.006 176.529 479.484 178.751 480.096 180.937C480.363 181.73 480.582 182.537 480.752 183.356C480.642 183.168 480.547 182.972 480.47 182.768C480.31 182.372 480.066 181.792 479.822 181.021C479.104 178.846 478.548 176.619 478.16 174.361C476.837 166.868 477.261 159.171 479.398 151.869C481.534 144.567 485.327 137.857 490.479 132.262C492.027 130.576 493.696 129.005 495.473 127.563C495.961 127.16 496.47 126.783 496.997 126.433C497.371 126.174 497.5 126.09 497.516 126.113Z" fill="white"/>
<path d="M510.582 118.866C510.651 119.064 508.531 120.048 505.939 121.284C503.348 122.52 501.236 123.573 501.129 123.359C501.022 123.146 502.997 121.833 505.627 120.628C508.257 119.423 510.529 118.682 510.582 118.866Z" fill="white"/>
<g opacity="0.4">
<path d="M503.226 202.391C503.226 202.391 536.128 229.643 564.129 201.094C593.372 171.279 562.604 136.932 562.604 136.932C562.604 136.932 587.67 163.672 560.469 196.708C553.692 204.932 544.384 207.968 537.058 209.563C518.388 213.622 503.226 202.391 503.226 202.391Z" fill="black"/>
</g>
<path d="M533.01 140.12C535.222 146.209 537.038 152.435 538.445 158.759C539.041 161.028 539.298 163.372 539.208 165.717C539.132 168.07 538.142 170.301 536.448 171.934C534.687 173.46 531.927 173.971 529.945 172.697L533.01 140.12Z" fill="#E0E0E0"/>
<path d="M526.576 163.222L533.475 132.567L533.696 164.58L529.45 167.51L526.576 163.222Z" fill="#FF0037"/>
<g opacity="0.4">
<path d="M533.475 132.567L530.7 162.505L533.696 164.58L533.475 132.567Z" fill="black"/>
</g>
<path d="M534.398 165.915C534.713 166.887 534.733 167.93 534.455 168.913C534.178 169.896 533.615 170.775 532.839 171.438C532.062 172.101 531.107 172.519 530.093 172.638C529.079 172.758 528.053 172.574 527.144 172.11C526.234 171.646 525.483 170.923 524.985 170.031C524.486 169.14 524.263 168.12 524.343 167.102C524.424 166.084 524.804 165.112 525.436 164.31C526.068 163.508 526.924 162.912 527.895 162.596C528.539 162.386 529.219 162.305 529.895 162.358C530.571 162.41 531.23 162.596 531.835 162.905C532.439 163.213 532.976 163.638 533.416 164.154C533.856 164.671 534.189 165.269 534.398 165.915Z" fill="white"/>
<path d="M529.45 172.873C528.468 172.869 527.506 172.593 526.67 172.077C525.835 171.56 525.157 170.823 524.714 169.946C524.27 169.069 524.076 168.087 524.155 167.107C524.233 166.127 524.58 165.188 525.158 164.393C525.735 163.598 526.521 162.978 527.428 162.601C528.335 162.224 529.328 162.105 530.299 162.257C531.269 162.408 532.179 162.825 532.928 163.462C533.676 164.098 534.235 164.928 534.542 165.862C534.761 166.531 534.845 167.236 534.791 167.937C534.736 168.639 534.543 169.323 534.224 169.949C533.905 170.576 533.464 171.133 532.929 171.589C532.394 172.045 531.774 172.391 531.104 172.606C530.57 172.782 530.012 172.872 529.45 172.873ZM529.45 162.536C528.932 162.539 528.418 162.622 527.925 162.78C527.28 162.959 526.678 163.268 526.155 163.686C525.631 164.105 525.198 164.625 524.881 165.215C524.563 165.805 524.368 166.453 524.308 167.121C524.247 167.788 524.322 168.461 524.527 169.099C524.733 169.737 525.065 170.327 525.504 170.833C525.943 171.339 526.48 171.751 527.082 172.045C527.684 172.338 528.34 172.507 529.009 172.54C529.677 172.574 530.346 172.472 530.975 172.24C531.596 172.042 532.171 171.721 532.667 171.298C533.163 170.875 533.57 170.358 533.864 169.776C534.164 169.192 534.345 168.554 534.397 167.899C534.449 167.244 534.372 166.586 534.169 165.961C533.845 164.962 533.215 164.09 532.368 163.47C531.521 162.849 530.5 162.512 529.45 162.505V162.536Z" fill="#262626"/>
<path d="M533.109 166.32C533.102 167.295 532.709 168.227 532.017 168.913C531.324 169.599 530.388 169.982 529.414 169.978C528.44 169.975 527.506 169.585 526.819 168.894C526.131 168.204 525.745 167.268 525.745 166.293C525.745 165.318 526.131 164.383 526.819 163.692C527.506 163.002 528.44 162.612 529.414 162.608C530.388 162.605 531.324 162.988 532.017 163.674C532.709 164.359 533.102 165.292 533.109 166.267V166.32Z" fill="#262626"/>
<path d="M501.289 76.6822C501.283 76.7534 501.265 76.823 501.236 76.8882L501.053 77.4833C500.815 78.266 500.522 79.0309 500.176 79.7721C497.989 84.5474 494.296 88.4716 489.664 90.9414C487.441 92.1308 485.034 92.9356 482.543 93.3218C476.62 94.2436 470.565 92.9333 465.551 89.6445L465.825 89.4003C468.783 95.3588 468.776 103.393 465.147 110.053C463.743 112.664 461.793 114.941 459.429 116.729C456.211 119.122 452.422 120.63 448.441 121.103C444.459 121.575 440.423 120.996 436.735 119.422L436.91 119.124C440.567 121.814 443.152 125.715 444.205 130.133C444.846 132.92 444.841 135.816 444.193 138.601C443.544 141.385 442.268 143.985 440.462 146.201C439.976 146.817 439.435 147.389 438.846 147.91L438.938 147.795L439.243 147.467C439.517 147.177 439.906 146.704 440.386 146.14C441.752 144.399 442.803 142.431 443.489 140.326C444.594 137.062 444.748 133.55 443.931 130.202C442.861 125.855 440.284 122.029 436.658 119.407L435.286 118.415L436.811 119.109C441.525 121.131 446.791 121.465 451.722 120.055C454.404 119.309 456.924 118.073 459.155 116.408C461.482 114.658 463.403 112.425 464.789 109.862C468.356 103.324 468.372 95.4122 465.482 89.5682L465.17 88.9426L465.757 89.3317C470.702 92.5862 476.678 93.8884 482.528 92.9861C487.115 92.2585 491.377 90.1633 494.756 86.9742C496.974 84.9034 498.784 82.4346 500.092 79.6958C500.446 78.967 500.756 78.218 501.022 77.4528L501.236 76.8653C501.251 76.7432 501.282 76.6746 501.289 76.6822Z" fill="#262626"/>
<path d="M544.163 88.0122C543.824 88.1423 543.475 88.2418 543.119 88.3097C542.705 88.4299 542.282 88.5116 541.853 88.5539C541.296 88.6454 540.733 88.6989 540.168 88.7141H539.177C538.834 88.7141 538.476 88.7141 538.102 88.6607C537.314 88.6145 536.53 88.5151 535.754 88.3631C533.975 88.0113 532.247 87.4398 530.609 86.6618C528.986 85.8486 527.468 84.8418 526.088 83.6635C525.493 83.1434 524.933 82.5853 524.411 81.9926C524.167 81.718 523.915 81.4586 523.709 81.1839L523.115 80.421C522.778 79.9639 522.473 79.4847 522.2 78.9867C521.976 78.6233 521.78 78.2432 521.613 77.8499C521.445 77.5278 521.307 77.1907 521.201 76.8428C521.285 76.7971 521.857 78.2619 523.344 80.2532L523.946 81.0161C524.168 81.2833 524.405 81.538 524.655 81.779C525.18 82.3527 525.74 82.8929 526.332 83.3964C527.699 84.5365 529.193 85.5145 530.784 86.3108C532.391 87.0737 534.082 87.6447 535.823 88.0122C536.578 88.1663 537.342 88.2758 538.11 88.3403C538.476 88.3403 538.827 88.4089 539.17 88.4165H540.138C542.646 88.3708 544.148 87.913 544.163 88.0122Z" fill="#262626"/>
<path d="M610.563 179.175C610.496 179.217 610.427 179.255 610.357 179.289L609.732 179.587C609.457 179.709 609.114 179.869 608.725 180.083C608.337 180.296 607.872 180.525 607.376 180.846C602.466 183.724 598.494 187.963 595.941 193.053C594.739 195.476 593.897 198.061 593.441 200.728C592.358 207.017 593.371 213.488 596.322 219.145L596.513 219.496L596.116 219.42C591.019 218.455 585.749 219.095 581.03 221.251C578.777 222.274 576.694 223.638 574.855 225.294C572.351 227.601 570.342 230.394 568.95 233.502C567.559 236.611 566.813 239.97 566.759 243.376V243.78L566.461 243.505C564.61 241.82 562.472 240.479 560.149 239.546C559.069 239.116 557.961 238.759 556.833 238.478C555.757 238.241 554.667 238.073 553.57 237.974C549.863 237.63 546.125 238.152 542.654 239.5C540.408 240.362 538.318 241.584 536.464 243.116C535.816 243.643 535.396 244.131 535.068 244.421L534.71 244.757C534.634 244.833 534.588 244.871 534.581 244.863C535.16 244.23 535.762 243.612 536.395 243.032C538.232 241.45 540.322 240.189 542.577 239.302C546.076 237.923 549.847 237.377 553.593 237.707C554.705 237.807 555.81 237.973 556.902 238.203C558.047 238.484 559.173 238.841 560.271 239.271C562.638 240.212 564.817 241.568 566.705 243.277L566.4 243.406C566.448 239.952 567.199 236.544 568.608 233.39C570.017 230.236 572.055 227.404 574.596 225.065C576.462 223.38 578.575 221.991 580.862 220.945C585.656 218.75 591.015 218.105 596.193 219.099L595.987 219.374C592.994 213.64 591.978 207.076 593.097 200.705C593.569 198.009 594.435 195.397 595.667 192.953C596.735 190.862 598.045 188.903 599.57 187.117C601.755 184.578 604.363 182.435 607.277 180.785C608.327 180.161 609.426 179.623 610.563 179.175Z" fill="#262626"/>
<path d="M603.069 158.965C602.971 158.876 602.884 158.776 602.809 158.667C602.57 158.375 602.35 158.067 602.154 157.744C601.199 156.199 600.626 154.448 600.482 152.637C600.337 150.826 600.626 149.007 601.323 147.33C602.433 144.74 604.431 142.632 606.957 141.387V141.737C603.795 140.984 600.757 139.787 597.931 138.182C594.466 136.261 591.599 133.42 589.644 129.973C588.125 127.098 587.471 123.844 587.761 120.604C587.949 118.427 588.672 116.331 589.865 114.501L590.475 113.684C590.658 113.448 590.848 113.28 590.978 113.127C591.118 112.977 591.265 112.835 591.42 112.7C591.31 112.873 591.182 113.034 591.039 113.181C590.917 113.341 590.742 113.517 590.566 113.753C590.391 113.99 590.208 114.279 589.995 114.585C588.874 116.415 588.205 118.486 588.043 120.627C587.798 123.799 588.462 126.975 589.957 129.782C591.915 133.167 594.762 135.951 598.19 137.831C600.986 139.414 603.988 140.603 607.109 141.364L607.612 141.493L607.14 141.715C604.688 142.914 602.741 144.944 601.643 147.444C600.792 149.421 600.528 151.6 600.881 153.723C601.111 155.111 601.586 156.447 602.283 157.668C602.771 158.522 603.092 158.965 603.069 158.965Z" fill="#262626"/>
<path d="M259.194 200.4C238.665 194.296 221.84 181.25 221.84 181.25L156.05 186.858L125.023 189.78C119.376 190.314 113.966 192.313 109.327 195.578L83.2776 213.942L96.8167 249.899C96.8167 249.899 121.905 239.088 130.817 246.733C131.472 257.032 131.343 264.372 131.343 264.372C128.042 293.012 133.394 300.001 135.833 301.679C136.2 301.933 136.509 302.262 136.739 302.645C136.969 303.028 137.115 303.456 137.167 303.899C137.167 303.998 137.167 304.098 137.167 304.189C138.058 311.656 137.336 319.228 135.048 326.391L128.072 348.432C117.4 369.451 115.037 393.735 115.037 393.735C137.434 382.993 164.497 399.335 164.497 399.335C199.961 418.484 248.956 405.881 248.956 405.881C248.491 392.804 246.623 390.469 246.623 390.469C244.291 385.8 244.291 379.262 244.291 379.262C244.291 369.458 242.895 364.324 242.895 364.324C239.625 350.774 240.563 342.839 240.563 342.839L243.361 306.409C243.361 306.409 257.357 293.806 252.692 269.026C252.692 269.026 247.096 245.207 257.822 221.388C257.822 221.388 262.96 208.777 269.493 204.107L259.194 200.4Z" fill="#FF0037"/>
<path d="M223.296 107.345C223.296 121.711 219.316 134.65 212.943 143.752C207.111 152.091 199.267 157.202 190.63 157.202C183.388 157.202 176.694 153.601 171.289 147.521C163.209 138.449 157.971 123.832 157.971 107.36C157.971 79.8256 172.601 57.5098 190.637 57.5098C208.674 57.5098 223.296 79.8103 223.296 107.345Z" fill="#F9B499"/>
<path d="M206.967 64.0332C206.967 64.0332 215.101 70.0375 220.597 86.8831C220.597 86.8831 230.591 115.951 212.974 143.462L213.058 156.035C213.058 156.035 213.523 156.501 217.258 155.562C217.258 155.562 217.258 158.37 225.644 155.097C225.644 155.097 230.774 158.37 235.44 150.893C235.44 150.893 241.539 151.366 243.826 142.501C243.826 142.501 246.158 142.974 248.956 135.97C248.956 135.97 258.295 133.163 252.692 113.548C252.692 113.548 255.962 102.34 246.158 91.1326C246.158 91.1326 238.23 84.5943 236.362 77.5905C236.396 75.3433 235.908 73.1189 234.936 71.0931C233.963 69.0672 232.533 67.2954 230.759 65.9176C230.759 65.9176 226.559 50.041 212.097 45.8372C212.097 45.8372 200.898 35.0951 197.613 44.4334L200.433 57.9831L206.967 64.0332Z" fill="#262626"/>
<path opacity="0.2" d="M206.967 64.0332C206.967 64.0332 215.101 70.0375 220.597 86.8831C220.597 86.8831 230.591 115.951 212.974 143.462L213.058 156.035C213.058 156.035 213.523 156.501 217.258 155.562C217.258 155.562 217.258 158.37 225.644 155.097C225.644 155.097 230.774 158.37 235.44 150.893C235.44 150.893 241.539 151.366 243.826 142.501C243.826 142.501 246.158 142.974 248.956 135.97C248.956 135.97 258.295 133.163 252.692 113.548C252.692 113.548 255.962 102.34 246.158 91.1326C246.158 91.1326 238.23 84.5943 236.362 77.5905C236.396 75.3433 235.908 73.1189 234.936 71.0931C233.963 69.0672 232.533 67.2954 230.759 65.9176C230.759 65.9176 226.559 50.041 212.097 45.8372C212.097 45.8372 200.898 35.0951 197.613 44.4334L200.433 57.9831L206.967 64.0332Z" fill="black"/>
<path opacity="0.2" d="M212.997 152.534C217.571 149.688 221.748 144.95 221.626 139.258C221.625 138.463 221.558 137.67 221.428 136.886C223.441 143.455 218.806 149.856 212.997 152.534Z" fill="black"/>
<path opacity="0.2" d="M217.266 155.562C220.315 154.799 222.412 151.557 224.043 149.039C224.607 148.116 225.118 147.17 225.667 146.224C225.484 146.735 225.263 147.238 225.064 147.75C223.631 150.878 221.024 155.196 217.266 155.57V155.562Z" fill="black"/>
<path opacity="0.2" d="M225.651 155.097C228.329 153.383 230.419 150.891 231.643 147.956C231.842 147.544 231.987 147.109 232.185 146.689C232.086 147.14 231.987 147.59 231.857 148.032C230.904 151.084 228.716 153.968 225.651 155.097Z" fill="black"/>
<path opacity="0.2" d="M248.956 135.955C248.956 135.955 250.824 121.459 247.096 109.802C247.096 109.802 253.492 118.408 252.394 133.72C252.394 133.72 250.359 135.04 248.956 135.955Z" fill="black"/>
<path opacity="0.2" d="M252.691 113.533C251.509 109.545 249.925 105.688 247.965 102.02C247.698 101.486 247.37 100.99 247.096 100.494C250.027 104.312 251.951 108.806 252.691 113.563V113.533Z" fill="black"/>
<path opacity="0.2" d="M234.037 94.3906C239.221 97.7399 243.589 102.836 245.236 108.886C245.007 108.375 244.771 107.803 244.557 107.284C242.072 102.244 238.475 97.835 234.037 94.3906Z" fill="black"/>
<path d="M221.893 181.25C217.693 194.327 196.233 200.865 196.233 200.865V231.619C196.233 232.256 195.98 232.868 195.53 233.318C195.079 233.769 194.468 234.022 193.832 234.022C193.216 234.019 192.625 233.78 192.18 233.355C191.734 232.929 191.469 232.349 191.438 231.734L189.7 199.446C172.928 202.246 156.104 186.843 156.104 186.843C172.875 184.035 171.198 147.513 171.198 147.513H171.289C176.694 153.617 183.388 157.195 190.63 157.195C199.267 157.195 207.401 150.588 213.263 142.249L213.027 160.697C214.43 173.781 221.893 181.25 221.893 181.25Z" fill="#F9B499"/>
<path d="M165.015 193.442C169.094 192.679 179.5 191.611 182.701 194.327C181.428 193.526 179.858 193.564 178.409 193.45C173.95 193.259 169.505 193.511 165.015 193.45V193.442Z" fill="#F7A48B"/>
<path d="M200.433 192.923C201.249 188.979 212.814 189.75 215.909 190.413C214.537 190.49 213.18 190.49 211.823 190.528C209.337 190.68 201.386 190.345 200.433 192.923Z" fill="#F7A48B"/>
<path d="M187.367 188.254C189.761 191.435 192.795 193.183 195.638 189.391C196.366 188.433 197.031 187.429 197.628 186.385C197.282 187.571 196.769 188.701 196.103 189.742C193.382 194.083 189.082 192.412 187.344 188.254H187.367Z" fill="#F7A48B"/>
<path d="M277.894 218.611C277.894 218.611 293.759 274.183 294.262 314.329C294.642 320.925 293.358 327.51 290.526 333.479C290.526 333.479 290.526 354.024 272.794 344.221L252.265 343.748C222.396 344.686 193.938 320.86 193.938 320.86C207.47 317.594 207.935 302.183 207.935 302.183C207.935 302.183 235.935 308.721 257.86 305.914L253.339 284.552C253.339 284.552 254.597 279.295 252.73 269.026C252.73 269.026 248.529 249.411 254.132 231.642C254.132 231.642 261.131 209.227 269.531 204.085C269.493 204.131 274.624 205.992 277.894 218.611Z" fill="#FF0037"/>
<path opacity="0.2" d="M277.894 218.611C277.894 218.611 293.759 274.183 294.262 314.329C294.642 320.925 293.358 327.51 290.526 333.479C290.526 333.479 290.526 354.024 272.794 344.221L252.265 343.748C222.396 344.686 193.938 320.86 193.938 320.86C207.47 317.594 207.935 302.183 207.935 302.183C207.935 302.183 235.935 308.721 257.86 305.914L253.339 284.552C253.339 284.552 254.597 279.295 252.73 269.026C252.73 269.026 248.529 249.411 254.132 231.642C254.132 231.642 261.131 209.227 269.531 204.085C269.493 204.131 274.624 205.992 277.894 218.611Z" fill="black"/>
<path opacity="0.2" d="M274.624 306.402C272.055 305.182 269.112 305.021 266.307 305.052C264.175 305.103 262.049 305.292 259.941 305.616C259.24 305.723 258.539 305.845 257.822 305.937C258.516 305.738 259.209 305.571 259.903 305.388C264.523 304.426 270.423 303.862 274.624 306.402Z" fill="black"/>
<path opacity="0.2" d="M273.679 300.337C270.119 300.695 262.038 301.046 261.161 305.349C261.187 304.731 261.382 304.132 261.725 303.617C264.157 300.421 269.966 300.123 273.679 300.337Z" fill="black"/>
<path d="M183.166 312.04L193.9 320.913C193.9 320.913 206.494 318.578 207.897 302.236L199.031 298.032C198.993 289.068 197.252 280.192 193.9 271.879V240.599C193.9 240.599 186.429 239.66 186.894 251.806L186.429 259.741L185.034 252.737C185.034 252.737 183.166 242.468 182.229 238.241L182.701 229.368C182.701 229.368 178.966 227.034 177.563 232.634C177.563 232.634 172.433 231.703 172.898 239.637V265.791C172.371 269.369 172.529 273.014 173.363 276.533C173.363 276.533 174.3 281.668 173.363 283.537C173.363 283.537 167.767 279.333 164.497 274.198C164.497 274.198 162.103 269.4 159.465 268.453C159.223 268.374 158.967 268.342 158.712 268.362C158.457 268.381 158.208 268.45 157.98 268.566C157.752 268.681 157.549 268.841 157.383 269.035C157.217 269.229 157.09 269.454 157.011 269.697C156.294 271.742 155.562 276.342 160.769 281.202C160.769 281.202 161.699 282.141 164.969 290.54C164.969 290.525 171.03 315.275 183.166 312.04Z" fill="#F9B499"/>
<path d="M160.769 281.187C161.78 280.249 163.119 279.745 164.497 279.783C163.487 280.724 162.148 281.229 160.769 281.187Z" fill="#F7A48B"/>
<path d="M177.563 232.618C176.793 233.855 176.333 235.26 176.222 236.713C176.11 238.166 176.351 239.625 176.923 240.965C176.992 244.201 177.265 247.429 177.739 250.631C178.235 252.78 178.235 255.013 177.739 257.162C176.995 260.306 176.47 263.497 176.168 266.714C176.159 263.465 176.476 260.225 177.114 257.04C177.551 254.963 177.515 252.814 177.007 250.753C176.513 247.535 176.289 244.281 176.336 241.026C175.429 238.737 175.574 234.8 177.563 232.633V232.618Z" fill="#F7A48B"/>
<path d="M184.097 270.445C183.41 267.004 183.83 263.052 185.964 260.176C184.813 263.525 184.485 266.928 184.097 270.445Z" fill="#F7A48B"/>
<path d="M186.894 276.053C186.633 277.865 186.747 279.713 187.23 281.479C187.713 283.246 188.553 284.894 189.7 286.322C186.422 284.209 185.362 279.547 186.894 276.053Z" fill="#F7A48B"/>
<path d="M189.235 289.595C189.021 293.058 188.183 296.423 188.762 299.871C187.131 296.713 188 292.753 189.235 289.595Z" fill="#F7A48B"/>
<path d="M173.363 283.521C174.039 286.265 174.2 289.111 173.835 291.914C173.155 289.17 172.995 286.324 173.363 283.521Z" fill="#F7A48B"/>
<path d="M133.234 209.739C133.234 209.739 144.897 202.735 157.034 205.535L187.832 212.539C187.832 212.539 195.295 213.942 199.496 216.742L232.276 218.901C232.523 218.916 232.758 219.013 232.944 219.177C233.129 219.341 233.254 219.562 233.299 219.806C233.344 220.049 233.305 220.3 233.191 220.52C233.076 220.739 232.891 220.913 232.665 221.015C232.341 221.168 232.007 221.3 231.666 221.411L234.655 221.747C234.825 221.767 234.988 221.826 235.131 221.92C235.275 222.014 235.395 222.139 235.481 222.287C235.568 222.435 235.618 222.601 235.63 222.773C235.641 222.944 235.613 223.115 235.547 223.273C234.784 224.967 232.23 227.622 223.73 227.935C223.73 227.935 218.135 232.604 208.331 228.865C204.292 230.51 199.769 230.51 195.73 228.865C195.73 228.865 190.599 234.008 177.998 229.804C177.998 229.804 165.457 237.754 147.108 227.912C146.062 227.351 144.908 227.023 143.724 226.949C142.54 226.876 141.354 227.058 140.247 227.484L137.861 228.4C137.861 228.4 131.838 220.008 133.234 209.739Z" fill="#F9B499"/>
<path d="M155.631 224.211C159.839 228.666 168.85 226.927 174.209 225.736C177.777 225.691 181.36 225.576 184.882 225.294C188.404 225.012 192.01 224.768 195.257 223.303C194.088 223.961 192.834 224.454 191.529 224.768C186.033 226.095 179.644 226.423 174.346 226.469C168.88 227.674 159.565 229.208 155.593 224.234L155.631 224.211Z" fill="#F7A48B"/>
<path d="M199.496 216.742C207.119 218.184 215.337 219.878 222.907 221.533L223.09 221.572C223.427 222.246 223.503 223.021 223.304 223.748C223.104 224.475 222.642 225.102 222.008 225.508C218.752 227.294 213.584 226.088 210.778 225.47C205.396 226.378 199.915 225.775 194.556 225.051L192.269 224.669C198.367 225.272 204.634 225.89 210.687 224.806C213.135 225.385 215.642 225.679 218.158 225.684C220.338 225.684 223.494 224.753 222.495 222.022L222.747 222.228C215.177 220.549 207.005 218.634 199.488 216.742H199.496Z" fill="#F7A48B"/>
<path d="M231.697 221.411C231.636 224.181 227.435 224.463 225.377 224.234C224.549 224.158 223.73 224.005 222.93 223.776C223.761 223.685 224.577 223.685 225.385 223.639C227.382 223.441 230.851 223.639 231.697 221.411Z" fill="#F7A48B"/>
<g opacity="0.2">
<path d="M145.835 312.94C153.458 325.422 163.369 339.803 176.633 346.571C163.125 341.001 152.277 325.651 145.835 312.94Z" fill="black"/>
</g>
<g opacity="0.2">
<path d="M155.166 317.617C160.624 327.909 169.65 335.798 179.431 341.894C178.143 341.23 176.847 340.559 175.619 339.826C166.967 334.57 159.13 327.085 155.196 317.617H155.166Z" fill="black"/>
</g>
<g opacity="0.2">
<path d="M140.704 341.894C154.655 346.151 167.638 353.193 179.866 361.059C191.59 369.527 207.607 372.602 220.963 366.178C217.71 367.85 214.222 369.018 210.618 369.642C199.702 371.503 188.381 367.971 179.454 361.7C167.256 353.78 154.426 346.716 140.704 341.863V341.894Z" fill="black"/>
</g>
<g opacity="0.2">
<path d="M196.233 269.514C207.287 268.271 218.173 263.663 226.094 255.782C227.268 254.721 228.274 253.401 229.364 252.257C221.992 262.938 209.078 269.232 196.233 269.537V269.514Z" fill="black"/>
</g>
<g opacity="0.2">
<path d="M209.299 262.976C218.585 255.346 227.595 247.259 234.96 237.753C228.396 247.892 219.202 256.185 209.299 262.976Z" fill="black"/>
</g>
<g opacity="0.2">
<path d="M143.967 236.822C148.929 242.191 154.611 246.844 160.853 250.647C161.73 251.226 162.667 251.677 163.567 252.234C155.709 249.055 148.913 243.711 143.967 236.822Z" fill="black"/>
</g>
<g opacity="0.2">
<path d="M146.765 245.23C151.398 248.951 156.414 252.166 161.73 254.82C162.492 255.232 163.254 255.583 164.017 255.949C157.39 254.01 151.42 250.295 146.75 245.207L146.765 245.23Z" fill="black"/>
</g>
<g opacity="0.2">
<path d="M138.372 279.783C143.944 285.253 150.569 289.892 157.994 292.372C158.521 292.569 159.058 292.737 159.603 292.875C160.144 293.02 160.693 293.173 161.234 293.333C158.98 293.066 156.765 292.528 154.64 291.731C148.239 289.291 142.617 285.162 138.372 279.783Z" fill="black"/>
</g>
<g opacity="0.2">
<path d="M139.302 266.714C141.758 270.677 144.74 274.288 148.168 277.448C143.99 275.221 140.933 271.101 139.302 266.714Z" fill="black"/>
</g>
<path d="M255.672 478.886C231.75 476.467 208.154 471.497 185.286 464.063C184.127 463.681 182.981 463.295 181.848 462.903C179.561 459.149 177.563 458.18 177.563 458.18C176.869 458.943 176.4 459.883 176.206 460.896C161.207 455.435 146.727 448.635 132.944 440.579C132.7 440.457 132.464 440.312 132.22 440.16C130.192 438.977 128.179 437.749 126.22 436.521C118.961 431.982 111.945 427.064 105.202 421.788C109.197 401.853 115.029 393.735 115.029 393.735C137.426 382.993 164.489 399.335 164.489 399.335C199.961 418.485 248.956 405.881 248.956 405.881C255.017 430.913 256.023 458.684 255.672 478.886Z" fill="#262626"/>
<path d="M206.967 64.033C206.967 64.033 200.868 76.6443 177.998 78.5288C177.998 78.5288 171 80.3903 166.799 82.7325C166.522 85.6261 165.646 88.4304 164.229 90.9677C162.812 93.505 160.883 95.7201 158.566 97.4724C158.566 97.4724 153.649 125.945 171.213 147.529C171.213 147.529 169.688 160.704 164.985 161.17C164.985 161.17 164.047 165.839 159.382 164.908C158.509 165.847 157.364 166.487 156.108 166.738C154.852 166.988 153.549 166.837 152.383 166.304C152.383 166.304 159.847 165.374 155.181 160.239C155.181 160.239 155.181 158.835 149.586 157.431C149.586 157.431 133.249 154.166 134.651 136.42C134.651 136.42 118.787 127.547 130.451 109.801C130.451 109.801 125.785 99.5247 135.582 90.6518C135.582 90.6518 134.651 75.2405 149.113 67.7638C150.358 67.0126 151.422 65.9953 152.229 64.7845C153.036 63.5737 153.565 62.1994 153.778 60.76C155.366 55.5879 158.413 50.985 162.553 47.5051C166.693 44.0252 171.749 41.8166 177.114 41.145C177.114 41.145 195.776 36.4759 197.643 44.4104C197.643 44.4104 203.246 44.4104 202.309 49.5525C202.309 49.5525 204.642 48.1487 204.642 53.2833C204.642 53.2833 207.447 51.8871 206.509 56.0909C206.494 56.0985 209.764 57.983 206.967 64.033Z" fill="#262626"/>
<path opacity="0.2" d="M135.566 90.6516C136.824 86.547 140.742 83.9149 144.211 81.8016C147.536 79.282 150.312 76.1095 152.368 72.4785C152.132 72.9439 151.895 73.4169 151.606 73.8823C149.85 77.1517 147.405 79.9997 144.44 82.2288C140.933 84.3345 137.137 86.7454 135.528 90.6898L135.566 90.6516Z" fill="black"/>
<path opacity="0.2" d="M130.436 109.801C131.236 107.512 132.89 105.636 134.568 103.949C136.29 102.273 138.189 100.789 140.232 99.5244C136.717 102.576 132.746 105.681 130.436 109.801Z" fill="black"/>
<path opacity="0.2" d="M134.636 136.42C136.077 131.507 139.256 127.196 143.022 123.809C139.713 127.623 136.656 131.758 134.636 136.42Z" fill="black"/>
<path opacity="0.2" d="M148.168 106.528C146.884 110.058 144.985 113.331 142.557 116.195C141.746 117.136 140.867 118.015 139.927 118.827C137.429 121.756 136.044 125.474 136.016 129.325C136.034 130.616 136.226 131.899 136.588 133.139C136.135 131.914 135.865 130.629 135.787 129.325C135.666 125.369 137.026 121.511 139.599 118.506C140.546 117.706 141.433 116.836 142.252 115.905C144.673 113.084 146.666 109.922 148.168 106.521V106.528Z" fill="black"/>
<path opacity="0.2" d="M159.366 164.908C160.613 163.384 161.562 161.64 162.164 159.766C162.166 160.789 161.91 161.796 161.422 162.694C160.933 163.593 160.226 164.354 159.366 164.908Z" fill="black"/>
<path opacity="0.2" d="M164.969 161.17C165.374 155.6 164.672 149.237 160.296 145.293C160.892 145.709 161.443 146.185 161.943 146.712C165.374 150.572 165.915 156.272 164.992 161.17H164.969Z" fill="black"/>
<path opacity="0.2" d="M158.901 149.535C153.763 145.278 151.24 138.03 154.106 131.751C154.855 130.075 155.841 128.516 157.034 127.12C155.815 128.802 154.842 130.649 154.144 132.606C151.956 138.595 154.495 145.24 158.901 149.535Z" fill="black"/>
<path opacity="0.2" d="M184.798 53.5274C185.15 52.1733 185.789 50.9111 186.673 49.8272C188.938 47.1172 192.091 45.3003 195.57 44.7003C196.256 44.5934 196.942 44.5019 197.628 44.418C196.965 44.6011 196.286 44.746 195.623 44.9291C191.049 46.1803 186.597 48.9879 184.798 53.5274Z" fill="black"/>
<path opacity="0.2" d="M192.734 60.5315C193.098 58.3143 193.994 56.2185 195.346 54.4245C196.697 52.6304 198.464 51.1917 200.494 50.2319C201.075 49.9778 201.667 49.7537 202.271 49.5605C199.98 50.5897 197.939 52.1033 196.289 53.9972C194.639 55.8911 193.418 58.1203 192.711 60.5315H192.734Z" fill="black"/>
<path opacity="0.2" d="M198.329 62.4004C198.154 58.9291 199.961 55.2136 203.223 53.7793C203.679 53.5826 204.147 53.4194 204.626 53.291C204.199 53.5428 203.734 53.703 203.33 53.9777C200.342 55.6943 198.756 59.0741 198.329 62.3699V62.4004Z" fill="black"/>
<path opacity="0.2" d="M202.53 66.6042C201.661 63.2473 201.699 58.6087 205.03 56.6174C205.489 56.3717 205.983 56.1968 206.494 56.0986C202.301 57.6245 202.202 62.8277 202.53 66.6042Z" fill="black"/>
<path d="M220.727 119.139C224.466 119.139 227.496 114.538 227.496 108.863C227.496 103.187 224.466 98.5859 220.727 98.5859C216.988 98.5859 213.957 103.187 213.957 108.863C213.957 114.538 216.988 119.139 220.727 119.139Z" fill="#F9B499"/>
<path d="M241.958 135.955C241.958 135.955 241.493 125.678 234.494 120.544C234.494 120.544 224.698 113.303 223.296 107.345C223.441 102.97 223.106 98.5927 222.297 94.291C227.505 102.485 233.462 110.178 240.09 117.271C240.09 117.271 247.096 124.274 241.958 135.955Z" fill="#262626"/>
<path opacity="0.3" d="M241.958 135.955C241.958 135.955 241.493 125.678 234.494 120.544C234.494 120.544 224.698 113.303 223.296 107.345C223.441 102.97 223.106 98.5927 222.297 94.291C227.505 102.485 233.462 110.178 240.09 117.271C240.09 117.271 247.096 124.274 241.958 135.955Z" fill="black"/>
<path d="M159.603 117.744C163.341 117.744 166.372 113.143 166.372 107.467C166.372 101.791 163.341 97.1904 159.603 97.1904C155.864 97.1904 152.833 101.791 152.833 107.467C152.833 113.143 155.864 117.744 159.603 117.744Z" fill="#F9B499"/>
<path d="M212.943 143.752C207.965 162.52 169.864 165.671 169.864 165.671C170.729 159.662 171.175 153.6 171.198 147.528H171.282C176.687 153.632 183.38 157.21 190.622 157.21C199.267 157.202 207.111 152.091 212.943 143.752Z" fill="#F7A48B"/>
<path d="M133.233 209.738C132.645 216.312 134.289 222.892 137.899 228.415C137.899 228.415 82.8354 263.907 44.5738 262.51C44.5738 262.51 34.3128 267.18 33.8401 252.234C33.8401 252.234 25.9118 247.565 34.3127 236.822C34.3127 236.822 50.177 210.204 90.3063 213.004C90.3063 213.004 106.636 213.942 133.233 209.738Z" fill="#FF0037"/>
<path opacity="0.2" d="M133.233 209.738C132.645 216.312 134.289 222.892 137.899 228.415C137.899 228.415 82.8354 263.907 44.5738 262.51C44.5738 262.51 34.3128 267.18 33.8401 252.234C33.8401 252.234 25.9118 247.565 34.3127 236.822C34.3127 236.822 50.177 210.204 90.3063 213.004C90.3063 213.004 106.636 213.942 133.233 209.738Z" fill="black"/>
<path d="M528.718 210.745C519.935 210.745 511.349 208.138 504.046 203.254C496.743 198.371 491.051 191.429 487.691 183.307C484.33 175.186 483.452 166.25 485.166 157.629C486.881 149.007 491.112 141.089 497.324 134.874C503.535 128.66 511.449 124.428 520.064 122.715C528.679 121.002 537.608 121.885 545.722 125.251C553.836 128.617 560.77 134.315 565.648 141.625C570.525 148.936 573.127 157.529 573.124 166.319C573.106 178.099 568.421 189.391 560.097 197.718C551.773 206.046 540.488 210.731 528.718 210.745ZM528.718 122.245C520.011 122.245 511.5 124.828 504.261 129.669C497.021 134.51 491.378 141.39 488.046 149.44C484.713 157.49 483.841 166.348 485.538 174.894C487.235 183.44 491.427 191.291 497.582 197.454C503.738 203.616 511.581 207.813 520.12 209.515C528.659 211.217 537.51 210.347 545.555 207.014C553.6 203.682 560.477 198.037 565.316 190.793C570.155 183.55 572.74 175.033 572.743 166.319C572.735 154.635 568.095 143.432 559.84 135.168C551.586 126.905 540.393 122.257 528.718 122.245Z" fill="#262626"/>
<path d="M556.638 182.541L556.469 182.883L567.032 188.114L567.201 187.772L556.638 182.541Z" fill="#262626"/>
<path d="M542.776 208.716L540.854 197.082L541.228 197.021L543.157 208.655L542.776 208.716Z" fill="#262626"/>
<path d="M507.457 205.473L507.152 205.252L514.035 195.685L514.348 195.906L507.457 205.473Z" fill="#262626"/>
<path d="M487.613 182.585L487.506 182.219L498.812 178.893L498.926 179.259L487.613 182.585Z" fill="#262626"/>
<path d="M489.64 145.02L489.462 145.357L499.875 150.882L500.053 150.545L489.64 145.02Z" fill="#262626"/>
<path d="M515.541 123.837L515.172 123.934L518.161 135.343L518.53 135.246L515.541 123.837Z" fill="#262626"/>
<path d="M545.375 137.908L545.047 137.725L550.826 127.448L551.161 127.631L545.375 137.908Z" fill="#262626"/>
<path d="M570.704 151.589L559.005 153.019L559.052 153.397L570.75 151.968L570.704 151.589Z" fill="#262626"/>
</svg>
