<svg width="58" height="43" viewBox="0 0 58 43" fill="none" xmlns="http://www.w3.org/2000/svg">
<path d="M40.9588 2.54004C41.0178 2.7043 41.055 2.86439 41.0851 3.0362C41.1377 3.32774 41.2004 3.61631 41.266 3.90516C41.3762 4.39113 41.4812 4.87793 41.5804 5.36625C41.6483 5.70001 41.7172 6.03325 41.7946 6.36496C41.898 6.80838 41.9873 7.25472 42.0776 7.70094C42.1332 7.97466 42.1891 8.24808 42.2512 8.52041C42.2603 8.56058 42.2694 8.60075 42.2788 8.64213C42.2954 8.71431 42.3124 8.78641 42.3297 8.8584C42.3478 8.93685 42.3615 9.01625 42.3743 9.09572C42.2822 9.18779 42.229 9.19134 42.102 9.21591C42.0603 9.22422 42.0185 9.23252 41.9754 9.24108C41.9296 9.24996 41.8837 9.25885 41.8365 9.268C41.7376 9.28776 41.6387 9.30761 41.5398 9.32765C41.5009 9.33552 41.5009 9.33552 41.4612 9.34355C41.1622 9.40458 40.865 9.47368 40.5677 9.5427C40.0743 9.65696 39.5798 9.76312 39.0835 9.86441C38.6005 9.96298 38.119 10.0683 37.6391 10.1807C37.2228 10.2782 36.8056 10.3681 36.3866 10.453C35.9292 10.5456 35.4745 10.6462 35.0203 10.7537C34.4268 10.8941 33.8305 11.0204 33.2333 11.144C32.7927 11.2355 32.3533 11.3325 31.9138 11.4291C31.741 11.4671 31.5682 11.5049 31.3954 11.5425C30.9791 11.6331 30.5629 11.724 30.1474 11.8182C30.1178 11.8249 30.0882 11.8316 30.0577 11.8385C30.0277 11.8453 29.9977 11.8521 29.9668 11.8591C29.9052 11.8731 29.8436 11.887 29.782 11.901C29.7514 11.9079 29.7208 11.9149 29.6892 11.922C29.1207 12.0506 28.5509 12.1724 27.9806 12.2928C27.4822 12.3981 26.9852 12.5072 26.4892 12.6235C26.0428 12.7281 25.5941 12.8227 25.1454 12.9169C25.0435 12.9383 24.9416 12.9597 24.8397 12.9812C24.814 12.9866 24.7883 12.992 24.7618 12.9976C24.3168 13.0914 23.8736 13.1917 23.4305 13.294C23.1006 13.3702 22.7705 13.4432 22.4379 13.5069C22.1295 13.5671 21.8237 13.6391 21.5176 13.7098C21.1118 13.8036 20.7058 13.8943 20.2977 13.9776C19.9255 14.0535 19.5537 14.1315 19.1826 14.2127C19.158 14.2181 19.1333 14.2235 19.1079 14.229C18.8223 14.2916 18.5369 14.3556 18.252 14.4213C18.2251 14.4275 18.1983 14.4337 18.1706 14.4401C18.1161 14.4527 18.0617 14.4653 18.0072 14.4778C17.9802 14.4841 17.9533 14.4903 17.9255 14.4967C17.8853 14.506 17.8853 14.506 17.8442 14.5155C17.3696 14.6249 16.8934 14.7256 16.416 14.8223C16.3907 14.8275 16.3655 14.8326 16.3394 14.8379C16.2717 14.8516 16.2039 14.8652 16.1362 14.8788C16.0327 14.9002 15.9296 14.9224 15.8266 14.9454C15.7967 14.9521 15.7667 14.9588 15.7359 14.9656C15.7133 14.9707 15.6906 14.9757 15.6673 14.9809C15.6978 14.9814 15.7283 14.982 15.7597 14.9825C16.7089 14.9983 17.658 15.0142 18.6072 15.0302C18.6834 15.0315 18.7595 15.0328 18.8357 15.0341C20.6384 15.0645 22.4411 15.0949 24.2437 15.1346C25.2286 15.1563 26.2134 15.1735 27.1985 15.1844C28.472 15.1986 29.7451 15.2276 31.0183 15.2561C31.4932 15.2667 31.9681 15.2773 32.443 15.2878C32.4707 15.2884 32.4985 15.289 32.5271 15.2897C33.7282 15.3161 34.9293 15.3381 36.1305 15.3581C36.1764 15.3588 36.2223 15.3596 36.2696 15.3604C37.2011 15.3759 38.1326 15.3911 39.0641 15.4027C39.1947 15.4043 39.3253 15.4061 39.4559 15.4079C39.5284 15.4089 39.601 15.4099 39.6735 15.4109C40.4156 15.4208 41.1572 15.4399 41.8989 15.4637C42.0374 15.4682 42.1759 15.4725 42.3144 15.4768C42.5827 15.4853 42.851 15.4938 43.1192 15.5024C43.1259 16.8162 43.1319 18.1301 43.1375 19.4439C43.1379 19.5226 43.1382 19.6012 43.1385 19.6799C43.1521 22.8557 43.1586 26.0315 43.1588 32.0684C43.1588 32.1783 43.1588 32.2883 43.1588 32.3982C43.1583 34.2656 43.1576 36.133 43.1565 38.0003C42.1105 38.0243 41.0645 38.0462 40.0183 38.0582C39.9854 38.0586 39.9525 38.059 39.9185 38.0594C37.8198 38.0838 35.7209 38.0805 33.6221 38.0797C33.1977 38.0795 32.7733 38.0795 32.3488 38.0797C30.0087 38.0806 27.6686 38.078 25.3286 38.0582C25.2624 38.0577 25.2624 38.0577 25.1949 38.0571C24.3677 38.0503 23.5406 38.0425 22.7135 38.0287C20.8645 37.9982 19.0156 37.9889 17.1663 37.9811C16.7252 37.9792 16.2842 37.9772 15.8431 37.9751C14.9402 37.9709 14.0373 37.967 13.1344 37.9631C13.1345 37.9151 13.1345 37.8671 13.1345 37.8177C13.136 35.6997 13.1371 33.5817 13.1364 31.4637C13.1364 31.4155 13.1364 31.4155 13.1363 31.3663C13.1361 30.6675 13.1358 29.9688 13.1354 29.27C13.1352 28.9273 13.135 28.5846 13.1349 28.2418C13.1349 28.2077 13.1348 28.1736 13.1348 28.1385C13.1343 27.036 13.1347 25.9336 13.1356 24.8311C13.1366 23.6968 13.1366 22.5625 13.1353 21.4281C13.1352 21.2674 13.135 21.1066 13.1348 20.9458C13.1348 20.8984 13.1348 20.8984 13.1347 20.85C13.1343 20.3438 13.1348 19.8376 13.1357 19.3314C13.1367 18.8206 13.1365 18.3099 13.1352 17.7991C13.1346 17.5231 13.1344 17.2472 13.1356 16.9712C13.1401 15.8507 13.1164 14.7782 12.8389 13.6872C12.7947 13.5129 12.7557 13.3374 12.7172 13.1617C12.7111 13.1339 12.705 13.106 12.6988 13.0774C12.687 13.0235 12.6752 12.9697 12.6634 12.9158C12.6388 12.8038 12.6136 12.692 12.5883 12.5802C12.5052 12.2118 12.4305 11.8421 12.3576 11.4716C12.298 11.1694 12.2356 10.8681 12.1706 10.567C12.1617 10.5259 12.1529 10.4847 12.1437 10.4423C12.1247 10.354 12.1057 10.2658 12.0867 10.1775C12.0281 9.90568 11.9696 9.63383 11.9118 9.36185C11.8982 9.29814 11.8845 9.23446 11.8708 9.17078C11.8515 9.08144 11.8325 8.99205 11.8136 8.90265C11.8078 8.87596 11.8019 8.84927 11.796 8.82177C11.7677 8.68747 11.7497 8.56257 11.7562 8.42526C12.0676 8.34241 12.3802 8.27751 12.6972 8.22024C13.0748 8.15191 13.4514 8.08064 13.8258 7.9969C14.1346 7.92812 14.444 7.86539 14.7547 7.80601C15.3187 7.69817 15.8818 7.58592 16.4449 7.4731C16.4879 7.46447 16.531 7.45585 16.5753 7.44696C16.7443 7.4131 16.9133 7.37923 17.0823 7.34531C17.2897 7.3037 17.497 7.2622 17.7045 7.22096C18.1327 7.13575 18.5603 7.04842 18.987 6.95628C19.4164 6.8643 19.8464 6.77754 20.2777 6.6952C20.7886 6.59745 21.2986 6.4951 21.8086 6.3929C21.8517 6.38427 21.8948 6.37564 21.9392 6.36674C22.1083 6.33286 22.2774 6.29897 22.4465 6.26503C22.6514 6.22391 22.8563 6.1829 23.0613 6.14215C23.5245 6.04998 23.9872 5.95523 24.4493 5.8575C25.3659 5.66384 25.3659 5.66384 25.8198 5.5781C27.0786 5.34016 28.3334 5.08063 29.5876 4.81959C30.5767 4.61382 31.5679 4.41872 32.5594 4.22476C33.07 4.12485 33.5803 4.02381 34.0895 3.91674C34.4148 3.84855 34.7407 3.78306 35.0666 3.71801C35.0941 3.71253 35.1216 3.70705 35.1499 3.7014C35.3765 3.65618 35.6032 3.61105 35.8298 3.56592C36.0271 3.52664 36.2243 3.48733 36.4215 3.44796C36.4488 3.44253 36.476 3.43709 36.5041 3.43149C36.8882 3.35479 37.2719 3.27617 37.6553 3.19571C37.9117 3.14197 38.1685 3.09113 38.426 3.04289C38.8454 2.96317 39.2634 2.87738 39.6812 2.78939C39.8947 2.74448 40.1083 2.69987 40.3219 2.65546C40.3943 2.64037 40.4668 2.62521 40.5392 2.61003C40.5831 2.60091 40.627 2.59178 40.6722 2.58238C40.7114 2.5742 40.7505 2.56602 40.7909 2.5576C40.8843 2.54004 40.8843 2.54004 40.9588 2.54004Z" fill="#FF0037"/>
<path d="M20.2116 7.27024C20.1368 7.5235 20.0579 7.77509 19.9756 8.02597C19.9638 8.06191 19.9521 8.09784 19.94 8.13486C19.9017 8.25174 19.8634 8.3686 19.8251 8.48547C19.7711 8.6506 19.7171 8.81575 19.663 8.9809C19.6495 9.02225 19.636 9.06361 19.622 9.10622C19.5386 9.36145 19.4554 9.61678 19.3726 9.87223C19.3625 9.90351 19.3524 9.93478 19.3419 9.967C19.3219 10.0287 19.302 10.0904 19.282 10.152C19.1573 10.5367 19.0322 10.9212 18.9047 11.305C18.8953 11.3333 18.8859 11.3616 18.8762 11.3908C18.8298 11.5303 18.783 11.6697 18.7353 11.8088C18.6501 12.0585 18.5684 12.3076 18.4998 12.5624C18.4686 12.6773 18.4356 12.7915 18.4023 12.9058C18.3873 12.9597 18.3732 13.0138 18.3602 13.0682C18.319 13.2401 18.2719 13.385 18.1629 13.5279C17.987 13.6127 17.8169 13.639 17.6244 13.6636C17.4906 13.6825 17.3595 13.7111 17.2274 13.7396C17.1216 13.7624 17.0157 13.7841 16.9097 13.8056C16.8565 13.8163 16.8565 13.8163 16.8022 13.8273C16.7665 13.8345 16.7308 13.8418 16.694 13.8492C16.621 13.864 16.5481 13.8789 16.4752 13.8937C16.1563 13.9586 15.8374 14.023 15.5183 14.0867C15.542 13.9094 15.591 13.7484 15.6523 13.5812C15.6622 13.5537 15.6721 13.5263 15.6823 13.498C15.7151 13.407 15.7483 13.3162 15.7814 13.2253C15.8047 13.1608 15.8281 13.0962 15.8514 13.0317C15.9136 12.8598 15.9761 12.6879 16.0386 12.5161C16.0894 12.3766 16.14 12.237 16.1907 12.0974C16.383 11.5675 16.5758 11.0377 16.7692 10.5081C16.8179 10.3748 16.8665 10.2415 16.9151 10.1081C16.9289 10.0704 16.9289 10.0704 16.9429 10.0319C17.0439 9.75478 17.1436 9.47727 17.2396 9.19837C17.2634 9.12947 17.2875 9.06068 17.3119 8.99201C17.3768 8.80919 17.4358 8.62615 17.4897 8.43978C17.5154 8.358 17.5412 8.27623 17.567 8.19446C17.5768 8.15636 17.5867 8.11826 17.5968 8.079C17.6357 7.96096 17.6704 7.88479 17.7532 7.79172C17.917 7.71845 18.0828 7.68744 18.2585 7.65842C18.3877 7.63605 18.5153 7.60722 18.6433 7.57881C18.8158 7.54064 18.9887 7.50456 19.1617 7.46812C19.2681 7.44564 19.3745 7.42313 19.481 7.40054C19.5465 7.38663 19.6121 7.37278 19.6777 7.359C19.7071 7.35277 19.7365 7.34655 19.7668 7.34013C19.7925 7.33471 19.8183 7.32928 19.8448 7.32369C20.0862 7.26685 20.0862 7.26685 20.2116 7.27024Z" fill="#FDFDFD"/>
<path d="M32.6892 4.81201C32.6448 5.03085 32.5884 5.23951 32.513 5.4496C32.5031 5.47781 32.4931 5.50602 32.4829 5.53509C32.4502 5.62781 32.4172 5.72043 32.3843 5.81306C32.3609 5.87921 32.3375 5.94538 32.3142 6.01155C32.2653 6.15023 32.2163 6.28889 32.1672 6.42753C32.0608 6.72865 31.9558 7.03025 31.8508 7.33186C31.8044 7.4649 31.758 7.59792 31.7116 7.73094C31.6765 7.83182 31.6413 7.93269 31.6061 8.03356C31.5326 8.24435 31.4591 8.45512 31.3855 8.66589C31.3733 8.70099 31.361 8.73609 31.3484 8.77226C31.2883 8.94461 31.2282 9.11696 31.168 9.2893C31.0711 9.56681 30.9743 9.84435 30.8785 10.1222C30.8647 10.1622 30.8509 10.2021 30.8366 10.2433C30.8127 10.3126 30.7889 10.3819 30.7651 10.4513C30.7499 10.4955 30.7499 10.4955 30.7343 10.5407C30.7259 10.565 30.7176 10.5893 30.709 10.6144C30.6987 10.6417 30.6884 10.6691 30.6778 10.6972C30.6637 10.7418 30.6495 10.7863 30.6349 10.8322C30.5661 10.958 30.5661 10.958 30.448 11.0114C30.3999 11.021 30.3518 11.0306 30.3023 11.0405C30.276 11.046 30.2498 11.0516 30.2227 11.0574C30.1387 11.0749 30.0545 11.091 29.9701 11.107C29.9157 11.1182 29.8613 11.1295 29.8069 11.1409C29.642 11.1752 29.4767 11.2076 29.3113 11.2397C29.2001 11.2613 29.089 11.2831 28.9779 11.305C28.9513 11.3102 28.9247 11.3154 28.8973 11.3208C28.6903 11.3618 28.485 11.409 28.28 11.4595C28.1822 11.4794 28.1822 11.4794 28.0332 11.4794C28.0557 11.2619 28.1151 11.0724 28.1892 10.8672C28.2164 10.7902 28.2437 10.7132 28.271 10.6363C28.2863 10.5931 28.3017 10.5499 28.3175 10.5054C28.406 10.2566 28.4928 10.0072 28.5799 9.75785C28.6246 9.63004 28.6694 9.50225 28.7141 9.37446C29.1617 8.09699 29.1617 8.09699 29.6049 6.81797C29.6351 6.73029 29.6655 6.64267 29.6961 6.5551C29.7674 6.35037 29.8355 6.14541 29.8982 5.9379C29.9108 5.89794 29.9234 5.85798 29.9363 5.8168C29.9596 5.74248 29.9818 5.66782 30.0027 5.59281C30.0131 5.56014 30.0235 5.52748 30.0343 5.49383C30.0426 5.4654 30.051 5.43697 30.0596 5.40767C30.2394 5.18346 30.6833 5.17115 30.9476 5.1212C30.994 5.11226 31.0404 5.10333 31.0881 5.09412C31.1856 5.07539 31.2831 5.05675 31.3806 5.03826C31.5055 5.01456 31.6304 4.99058 31.7552 4.96649C31.8748 4.94344 31.9943 4.92058 32.1139 4.89771C32.1587 4.8891 32.2035 4.88049 32.2497 4.87162C32.2911 4.86377 32.3325 4.85593 32.3752 4.84785C32.4117 4.84091 32.4481 4.83397 32.4857 4.82681C32.5775 4.81201 32.5775 4.81201 32.6892 4.81201Z" fill="#FDFDFD"/>
<path d="M31.972 16.1685C32.0175 16.1685 32.0631 16.1686 32.1101 16.1687C32.1351 16.1687 32.1602 16.1687 32.1861 16.1687C32.2693 16.1687 32.3525 16.169 32.4358 16.1693C32.4933 16.1694 32.5509 16.1694 32.6085 16.1695C32.7603 16.1696 32.9121 16.17 33.0639 16.1704C33.2187 16.1708 33.3735 16.1709 33.5283 16.1711C33.8322 16.1715 34.1361 16.1722 34.44 16.1729C34.3901 16.3007 34.3358 16.4166 34.2654 16.5344C34.2457 16.5675 34.226 16.6006 34.2058 16.6347C34.1847 16.6698 34.1637 16.7049 34.1421 16.741C34.098 16.8149 34.054 16.8889 34.0099 16.9629C33.9772 17.0177 33.9772 17.0177 33.9438 17.0737C33.8571 17.2192 33.7714 17.3654 33.6858 17.5115C33.5765 17.6976 33.4665 17.8831 33.3552 18.0679C33.1973 18.3303 33.041 18.5937 32.8849 18.8571C32.872 18.879 32.859 18.9009 32.8457 18.9234C32.6967 19.175 32.5478 19.4266 32.3992 19.6784C32.1913 20.0304 31.9832 20.3822 31.7747 20.7338C31.7441 20.7854 31.7135 20.837 31.6829 20.8887C31.6395 20.962 31.596 21.0352 31.5526 21.1085C31.5276 21.1507 31.5026 21.1928 31.4768 21.2363C31.4627 21.2586 31.4487 21.2809 31.4342 21.3039C31.381 21.3926 31.381 21.3926 31.3297 21.5112C31.1619 21.847 31.1619 21.847 30.962 21.9141C30.8045 21.9281 30.654 21.9266 30.4964 21.9192C30.4392 21.9183 30.382 21.9176 30.3248 21.9171C30.175 21.9153 30.0255 21.9105 29.8758 21.9052C29.7228 21.9002 29.5697 21.898 29.4166 21.8956C29.1168 21.8904 28.8172 21.8821 28.5176 21.8719C28.5698 21.7378 28.6283 21.6183 28.7032 21.4952C28.7255 21.4584 28.7478 21.4216 28.7708 21.3837C28.8068 21.3246 28.8068 21.3246 28.8435 21.2643C28.8945 21.18 28.9454 21.0957 28.9963 21.0114C29.0092 20.99 29.0222 20.9685 29.0355 20.9465C29.1645 20.7324 29.2906 20.5166 29.4162 20.3005C29.7071 19.8001 30.0017 19.3019 30.2971 18.8042C30.3464 18.7209 30.3958 18.6377 30.4452 18.5545C30.47 18.5127 30.4948 18.4709 30.5203 18.4278C30.6938 18.1351 30.8661 17.8417 31.0379 17.5481C31.2394 17.2037 31.4414 16.8597 31.6464 16.5175C31.665 16.4864 31.6836 16.4554 31.7027 16.4234C31.7195 16.3955 31.7362 16.3676 31.7535 16.3388C31.768 16.3147 31.7825 16.2905 31.7975 16.2657C31.8559 16.1736 31.8559 16.1736 31.972 16.1685Z" fill="#FCFCFC"/>
<path d="M38.3411 16.1685C38.3867 16.1685 38.4323 16.1686 38.4792 16.1687C38.5043 16.1687 38.5294 16.1687 38.5552 16.1687C38.6384 16.1687 38.7217 16.169 38.8049 16.1693C38.8625 16.1694 38.92 16.1694 38.9776 16.1695C39.1294 16.1696 39.2812 16.17 39.433 16.1704C39.5878 16.1708 39.7426 16.1709 39.8974 16.1711C40.2013 16.1715 40.5053 16.1722 40.8092 16.1729C40.7523 16.3204 40.6843 16.447 40.5998 16.5809C40.5729 16.624 40.5459 16.6672 40.5191 16.7103C40.5054 16.7324 40.4916 16.7544 40.4775 16.7771C40.3738 16.9457 40.2751 17.1173 40.1755 17.2883C39.8698 17.8132 39.5583 18.3345 39.2448 18.8548C39.1687 18.9813 39.0926 19.1078 39.0166 19.2343C38.9895 19.2794 38.9895 19.2794 38.9619 19.3254C38.8092 19.5799 38.6586 19.8357 38.5081 20.0916C38.3901 20.2914 38.2707 20.4904 38.15 20.6886C38.136 20.7116 38.1219 20.7346 38.1075 20.7584C38.0386 20.8713 37.9697 20.9842 37.9005 21.097C37.8752 21.1385 37.8498 21.18 37.8237 21.2228C37.8014 21.2592 37.7791 21.2955 37.7561 21.3329C37.6522 21.5102 37.5553 21.6915 37.4568 21.8719C36.6087 21.8719 35.7606 21.8719 34.8867 21.8719C34.9386 21.7423 34.9848 21.6384 35.0548 21.521C35.0735 21.4894 35.0922 21.4578 35.1115 21.4253C35.1318 21.3914 35.1521 21.3575 35.1731 21.3225C35.1944 21.2866 35.2158 21.2506 35.2378 21.2136C35.352 21.0218 35.4669 20.8304 35.5821 20.6392C35.6281 20.5628 35.6741 20.4864 35.7201 20.4099C35.7434 20.3712 35.7667 20.3325 35.7907 20.2927C35.9822 19.9738 36.1682 19.6519 36.3533 19.3292C36.5365 19.0104 36.7248 18.6949 36.9147 18.38C37.0729 18.1175 37.2284 17.8535 37.3823 17.5884C37.5702 17.2649 37.7604 16.9431 37.9527 16.6222C37.9892 16.5613 37.9892 16.5613 38.0264 16.4991C38.0488 16.4618 38.0712 16.4245 38.0943 16.3861C38.1241 16.3364 38.1241 16.3364 38.1546 16.2857C38.2247 16.1736 38.2247 16.1736 38.3411 16.1685Z" fill="#FCFCFC"/>
<path d="M20.336 16.1206C20.4857 16.1283 20.6356 16.1317 20.7855 16.1354C21.0786 16.1434 21.3712 16.156 21.664 16.1718C21.6112 16.3067 21.5522 16.4313 21.4812 16.5577C21.4599 16.5958 21.4385 16.6339 21.4165 16.6732C21.3937 16.7137 21.3709 16.7541 21.3474 16.7957C21.3238 16.8377 21.3001 16.8797 21.2758 16.923C21.1342 17.1741 20.9905 17.4236 20.8434 17.6714C20.6926 17.9257 20.5463 18.1825 20.3999 18.4393C20.1994 18.7908 19.9981 19.1417 19.795 19.4917C19.6459 19.7487 19.4975 20.0062 19.3492 20.2636C19.2379 20.4568 19.1264 20.6498 19.0142 20.8425C18.9756 20.9089 18.9369 20.9753 18.8983 21.0418C18.8498 21.1252 18.8012 21.2086 18.7525 21.292C18.7305 21.3299 18.7085 21.3677 18.6859 21.4068C18.6666 21.4398 18.6473 21.4729 18.6275 21.5069C18.5646 21.6246 18.5132 21.7481 18.4606 21.8708C17.6002 21.8708 16.7398 21.8708 15.8533 21.8708C15.905 21.7155 15.9407 21.6135 16.0213 21.4802C16.0494 21.4334 16.0494 21.4334 16.078 21.3856C16.0984 21.3521 16.1187 21.3186 16.1396 21.2841C16.1838 21.2103 16.228 21.1364 16.2722 21.0625C16.2952 21.024 16.3183 20.9855 16.342 20.9458C16.4572 20.7516 16.5696 20.5557 16.682 20.3599C16.883 20.0105 17.0856 19.6622 17.2897 19.3146C17.303 19.2919 17.3163 19.2692 17.3301 19.2458C17.3832 19.1552 17.4364 19.0646 17.4896 18.974C17.6165 18.7579 17.743 18.5416 17.8693 18.3252C17.8903 18.2893 17.9112 18.2535 17.9328 18.2165C18.0445 18.0249 18.1556 17.8329 18.2663 17.6406C18.2902 17.5991 18.3141 17.5575 18.3387 17.5147C18.3834 17.4369 18.4281 17.359 18.4727 17.2811C18.5166 17.2047 18.5619 17.1292 18.6083 17.0544C18.6717 16.9476 18.7133 16.8397 18.7553 16.7229C19.0516 15.989 19.6538 16.0819 20.336 16.1206Z" fill="#FCFCFC"/>
<path d="M38.8734 3.58203C38.8245 3.82274 38.7583 4.04807 38.6744 4.27869C38.6621 4.31286 38.6499 4.34703 38.6373 4.38223C38.5982 4.49115 38.5589 4.59997 38.5196 4.70879C38.4686 4.85018 38.4178 4.99161 38.3671 5.13307C38.354 5.16953 38.3409 5.20598 38.3274 5.24354C38.1739 5.67263 38.0261 6.10369 37.8782 6.53473C37.7995 6.76376 37.7205 6.99267 37.6416 7.22159C37.6102 7.31262 37.5788 7.40366 37.5475 7.49469C37.532 7.5397 37.5164 7.58471 37.5005 7.63108C37.4689 7.72263 37.4373 7.81417 37.4058 7.90572C37.3823 7.97393 37.3823 7.97393 37.3583 8.04352C37.335 8.11129 37.335 8.11129 37.3112 8.18043C37.2803 8.2698 37.2493 8.3591 37.218 8.44833C37.1441 8.65985 37.0734 8.87138 37.0095 9.08615C36.9911 9.1454 36.9911 9.1454 36.9723 9.20585C36.9496 9.27937 36.928 9.35325 36.9079 9.42752C36.8628 9.57024 36.8317 9.66262 36.7025 9.74481C36.5317 9.81458 36.3587 9.85512 36.1752 9.87494C35.9566 9.90329 35.7434 9.94356 35.5281 9.99076C35.4964 9.99768 35.4648 10.0046 35.4322 10.0117C35.3681 10.0258 35.3039 10.0399 35.2397 10.054C35.0861 10.0875 34.9322 10.1195 34.7782 10.1512C34.7512 10.1569 34.7242 10.1625 34.6964 10.1683C34.5496 10.1985 34.4027 10.2259 34.2546 10.2495C34.2809 10.1 34.3231 9.96041 34.3711 9.81649C34.3791 9.79219 34.3872 9.7679 34.3955 9.74288C34.4225 9.66175 34.4496 9.58067 34.4767 9.4996C34.4961 9.44134 34.5155 9.38309 34.5349 9.32483C34.5875 9.16681 34.6403 9.00884 34.6931 8.85087C34.7483 8.68564 34.8033 8.52036 34.8584 8.3551C34.9509 8.07768 35.0435 7.80029 35.1361 7.52291C35.2433 7.20195 35.3503 6.88095 35.4573 6.55992C35.5602 6.2513 35.6631 5.9427 35.7661 5.63411C35.81 5.50266 35.8538 5.37121 35.8976 5.23976C35.9492 5.08513 36.0008 4.93052 36.0525 4.77593C36.0714 4.71909 36.0904 4.66224 36.1094 4.60538C36.1351 4.528 36.161 4.45065 36.1869 4.3733C36.2013 4.32994 36.2158 4.28657 36.2307 4.24189C36.266 4.14075 36.266 4.14075 36.3033 4.06626C36.3911 4.04058 36.3911 4.04058 36.5091 4.01736C36.5531 4.00854 36.5972 3.99971 36.6425 3.99062C36.6905 3.98135 36.7385 3.97207 36.788 3.96252C36.8375 3.95272 36.887 3.94289 36.9365 3.93304C37.0672 3.90711 37.198 3.88157 37.3288 3.85611C37.4612 3.83026 37.5936 3.80401 37.7259 3.7778C37.92 3.73946 38.1141 3.70125 38.3082 3.66336C38.3669 3.65191 38.3669 3.65191 38.4267 3.64023C38.7364 3.58203 38.7364 3.58203 38.8734 3.58203Z" fill="#FDFDFD"/>
<path d="M26.3573 6.11609C26.2676 6.42509 26.1666 6.73015 26.0646 7.03522C26.047 7.08793 26.0294 7.14064 26.0118 7.19336C25.9656 7.33165 25.9194 7.46991 25.8732 7.60817C25.8271 7.74627 25.781 7.8844 25.7349 8.02252C25.6811 8.18359 25.6273 8.34466 25.5735 8.50571C25.4991 8.72823 25.4248 8.95075 25.3508 9.17339C25.2475 9.48408 25.1435 9.79446 25.0376 10.1043C25.0272 10.1349 25.0168 10.1655 25.0061 10.1971C24.9512 10.3581 24.8952 10.5185 24.8373 10.6784C24.7315 10.9742 24.6361 11.2528 24.5985 11.5655C24.5254 12.0753 24.5254 12.0753 24.3087 12.262C23.8339 12.491 23.264 12.5371 22.7475 12.6035C22.4084 12.6478 22.0737 12.716 21.7385 12.7835C21.8084 12.5172 21.8865 12.2557 21.9758 11.9953C21.9877 11.9605 21.9996 11.9257 22.0118 11.8898C22.0501 11.7771 22.0887 11.6646 22.1273 11.552C22.1542 11.4732 22.1811 11.3944 22.208 11.3156C22.3719 10.8362 22.5388 10.3579 22.7087 9.88059C22.8502 9.48259 22.9855 9.08285 23.118 8.68173C23.2696 8.22294 23.4273 7.76639 23.587 7.31037C23.5986 7.27711 23.6102 7.24386 23.6222 7.20959C23.6551 7.11556 23.6881 7.02155 23.7211 6.92755C23.731 6.89925 23.7409 6.87095 23.7512 6.84179C23.8201 6.64625 23.8201 6.64625 23.8617 6.56307C23.9298 6.54389 23.9298 6.54389 24.02 6.52975C24.0706 6.52147 24.0706 6.52147 24.1223 6.51301C24.1592 6.50725 24.1961 6.50149 24.2342 6.49556C24.3125 6.48266 24.3907 6.46966 24.469 6.45657C24.5099 6.44972 24.5508 6.44288 24.5929 6.43583C24.7984 6.40021 25.0028 6.35975 25.2073 6.31863C25.2662 6.30682 25.2662 6.30682 25.3263 6.29477C25.5652 6.24633 25.8026 6.19446 26.0388 6.13399C26.1466 6.11368 26.2478 6.11305 26.3573 6.11609Z" fill="#FDFDFD"/>
<path d="M26.7028 16.1229C26.8528 16.1301 27.0029 16.1333 27.153 16.1369C27.4467 16.1444 27.74 16.1565 28.0334 16.1715C27.9734 16.3257 27.9011 16.4679 27.8192 16.6114C27.8048 16.6369 27.7903 16.6624 27.7754 16.6887C27.5768 17.038 27.3732 17.3846 27.1702 17.7314C27.0613 17.9175 26.9525 18.1037 26.8438 18.2899C26.8225 18.3264 26.8012 18.3629 26.7792 18.4005C26.6159 18.6805 26.4538 18.9612 26.292 19.2421C26.0984 19.5782 25.9032 19.9133 25.7061 20.2474C25.5925 20.4398 25.4792 20.6324 25.3661 20.825C25.3382 20.8724 25.3103 20.9198 25.2824 20.9672C25.2558 21.0124 25.2291 21.0577 25.2026 21.1031C25.1767 21.1471 25.1504 21.191 25.1238 21.2346C25.0624 21.3369 25.0127 21.4334 24.9724 21.5459C24.9254 21.6701 24.8913 21.7434 24.7928 21.8332C24.5553 21.8915 24.3235 21.8836 24.0804 21.8774C24.0117 21.8771 23.943 21.877 23.8742 21.8771C23.7366 21.877 23.599 21.8757 23.4613 21.8734C23.2851 21.8704 23.109 21.8702 22.9328 21.8713C22.6961 21.8727 22.4594 21.8724 22.2227 21.8704C22.2727 21.7007 22.3412 21.5642 22.4345 21.4141C22.5986 21.1469 22.7556 20.8759 22.9117 20.604C23.0709 20.3271 23.2309 20.051 23.3966 19.778C23.5333 19.5517 23.6646 19.3223 23.7964 19.0931C23.9917 18.7536 24.1889 18.4153 24.3887 18.0784C24.5383 17.8259 24.6868 17.5727 24.8347 17.3192C24.8543 17.2856 24.8738 17.2521 24.894 17.2175C24.9137 17.1837 24.9334 17.1499 24.9537 17.115C24.9759 17.0797 24.9981 17.0444 25.0209 17.008C25.0788 16.9012 25.1151 16.8099 25.1525 16.6957C25.4208 15.9766 26.0503 16.0878 26.7028 16.1229Z" fill="#FCFCFC"/>
<path d="M14.8479 8.38769C14.688 8.96236 14.4957 9.52648 14.3057 10.0917C14.2373 10.2953 14.1691 10.499 14.1009 10.7027C14.0772 10.7733 14.0535 10.8439 14.0297 10.9144C14.0154 10.9571 14.0011 10.9998 13.9864 11.0438C13.9738 11.0812 13.9612 11.1187 13.9482 11.1573C13.922 11.2394 13.899 11.3209 13.8795 11.4048C13.8549 11.4048 13.8303 11.4048 13.805 11.4048C13.8009 11.381 13.7968 11.3572 13.7926 11.3327C13.7138 10.8765 13.6317 10.4212 13.54 9.96739C13.5333 9.93394 13.5265 9.90049 13.5196 9.86602C13.4858 9.69905 13.4517 9.53215 13.4173 9.36531C13.4047 9.30332 13.392 9.24134 13.3794 9.17936C13.3735 9.15103 13.3675 9.12271 13.3614 9.09353C13.3335 8.95561 13.3138 8.82653 13.3208 8.68567C13.6306 8.61253 13.9412 8.54274 14.252 8.47382C14.308 8.46117 14.308 8.46117 14.3652 8.44826C14.4186 8.4365 14.4186 8.4365 14.4731 8.4245C14.5209 8.41386 14.5209 8.41386 14.5696 8.40301C14.6641 8.38729 14.7523 8.38498 14.8479 8.38769Z" fill="#FAFAFA"/>
<path d="M14.5867 16.0625C15.0784 16.0625 15.5701 16.0625 16.0767 16.0625C16.0252 16.1911 15.977 16.3002 15.9099 16.419C15.8821 16.4683 15.8821 16.4683 15.8537 16.5186C15.8336 16.554 15.8134 16.5894 15.7926 16.6259C15.7609 16.6818 15.7609 16.6818 15.7286 16.7388C15.5111 17.1204 15.2871 17.498 15.0622 17.8753C14.975 18.0217 14.8883 18.1683 14.8026 18.3156C14.7852 18.3456 14.7677 18.3756 14.7497 18.4065C14.718 18.461 14.6864 18.5157 14.6549 18.5704C14.6208 18.629 14.5853 18.6868 14.5495 18.7444C14.5372 18.7444 14.5249 18.7444 14.5122 18.7444C14.5076 18.2412 14.5139 17.7388 14.5285 17.2358C14.5293 17.2094 14.53 17.183 14.5307 17.1559C14.5329 17.0781 14.5353 17.0004 14.5377 16.9227C14.5391 16.878 14.5404 16.8333 14.5418 16.7873C14.553 16.5455 14.5706 16.304 14.5867 16.0625Z" fill="#FBFBFB"/>
<path d="M42.3371 19.5991C42.3494 19.5991 42.3617 19.5991 42.3743 19.5991C42.4292 20.3428 42.4149 21.0888 42.4116 21.834C41.9814 21.834 41.5512 21.834 41.1079 21.834C41.2655 21.5188 41.4219 21.2099 41.5968 20.9051C41.6386 20.8318 41.6803 20.7585 41.7221 20.6851C41.7434 20.6478 41.7647 20.6105 41.7866 20.5721C41.9001 20.373 42.0126 20.1734 42.1253 19.9739C42.1662 19.9014 42.2072 19.8289 42.2482 19.7564C42.2654 19.726 42.2826 19.6955 42.3003 19.6642C42.3185 19.632 42.3185 19.632 42.3371 19.5991Z" fill="#F8F8F8"/>
<path d="M40.9955 6.56201C41.02 6.56201 41.0446 6.56201 41.0699 6.56201C41.079 6.60844 41.088 6.65487 41.0973 6.70271C41.1587 7.01551 41.2215 7.32752 41.2958 7.63755C41.3049 7.676 41.3049 7.676 41.3143 7.71522C41.3234 7.75305 41.3234 7.75305 41.3326 7.79164C41.3672 7.93639 41.4007 8.08129 41.4331 8.22654C41.4421 8.26663 41.4512 8.30673 41.4605 8.34803C41.4798 8.46267 41.4832 8.56914 41.4797 8.68516C41.2422 8.75609 41.0036 8.81322 40.7603 8.85976C40.7354 8.86465 40.7105 8.86954 40.6848 8.87457C40.5377 8.90188 40.3997 8.9105 40.2505 8.90865C40.3734 8.44903 40.5122 7.9973 40.6649 7.54676C40.6846 7.48806 40.7044 7.42935 40.7241 7.37063C40.7612 7.26033 40.7983 7.15006 40.8356 7.03982C40.8893 6.8807 40.9425 6.7214 40.9955 6.56201Z" fill="#F9F9F9"/>
<path d="M40.9961 6.56201C41.0207 6.56201 41.0453 6.56201 41.0706 6.56201C41.0706 6.64806 41.0706 6.7341 41.0706 6.82275C41.0215 6.83504 40.9723 6.84733 40.9216 6.86C40.9462 6.76166 40.9708 6.66333 40.9961 6.56201Z" fill="#D6D6D6"/>
</svg>
